<svg width="60" height="60" viewBox="0 0 60 60" fill="none" xmlns="http://www.w3.org/2000/svg">
<g id="battery">
<path id="Icon" d="M13.1179 45.2237H8.19923C6.89471 45.2237 5.64361 44.7055 4.72118 43.7831C3.79874 42.8606 3.28052 41.6095 3.28052 40.305V20.6301C3.28052 19.3256 3.79874 18.0745 4.72118 17.1521C5.64361 16.2296 6.89471 15.7114 8.19923 15.7114H16.0446M37.7115 15.7114H42.6302C43.9348 15.7114 45.1859 16.2296 46.1083 17.1521C47.0307 18.0745 47.549 19.3256 47.549 20.6301V40.305C47.549 41.6095 47.0307 42.8606 46.1083 43.7831C45.1859 44.7055 43.9348 45.2237 42.6302 45.2237H34.7849M57.3864 32.9269V28.0082M27.8741 15.7114L18.0367 30.4676H32.7928L22.9554 45.2237" stroke="#0055FE" stroke-width="2.76678" stroke-linecap="round" stroke-linejoin="round"/>
</g>
</svg>
