<svg width="60" height="60" viewBox="0 0 60 60" fill="none" xmlns="http://www.w3.org/2000/svg">
<g id="computer chip">
<path id="Icon" d="M22.7982 3.41455V10.7926M37.5543 3.41455V10.7926M22.7982 50.1423V57.5204M37.5543 50.1423V57.5204M49.8511 23.0894H57.2292M49.8511 35.3862H57.2292M3.12329 23.0894H10.5014M3.12329 35.3862H10.5014M15.4201 10.7926H44.9324C47.6489 10.7926 49.8511 12.9948 49.8511 15.7113V45.2236C49.8511 47.9402 47.6489 50.1423 44.9324 50.1423H15.4201C12.7035 50.1423 10.5014 47.9402 10.5014 45.2236V15.7113C10.5014 12.9948 12.7035 10.7926 15.4201 10.7926ZM22.7982 23.0894H37.5543V37.8456H22.7982V23.0894Z" stroke="#0055FE" stroke-width="2.76678" stroke-linecap="round" stroke-linejoin="round"/>
</g>
</svg>
