<svg width="60" height="60" viewBox="0 0 60 60" fill="none" xmlns="http://www.w3.org/2000/svg">
<g id="microphone">
<path id="Icon" d="M47.2345 24.6823V29.601C47.2345 34.1669 45.4207 38.5457 42.1922 41.7742C38.9636 45.0028 34.5848 46.8165 30.019 46.8165M30.019 46.8165C25.4531 46.8165 21.0743 45.0028 17.8458 41.7742C14.6172 38.5457 12.8035 34.1669 12.8035 29.601V24.6823M30.019 46.8165V56.654M20.1815 56.654H39.8564M30.019 2.5481C28.0622 2.5481 26.1855 3.32543 24.8019 4.70908C23.4182 6.09274 22.6409 7.96938 22.6409 9.92617V29.601C22.6409 31.5578 23.4182 33.4345 24.8019 34.8181C26.1855 36.2018 28.0622 36.9791 30.019 36.9791C31.9758 36.9791 33.8524 36.2018 35.2361 34.8181C36.6197 33.4345 37.397 31.5578 37.397 29.601V9.92617C37.397 7.96938 36.6197 6.09274 35.2361 4.70908C33.8524 3.32543 31.9758 2.5481 30.019 2.5481Z" stroke="#0055FE" stroke-width="2.76678" stroke-linecap="round" stroke-linejoin="round"/>
</g>
</svg>
