<svg width="178" height="107" viewBox="0 0 178 107" fill="none" xmlns="http://www.w3.org/2000/svg">
<mask id="path-1-inside-1_63_954" fill="white">
<path d="M111.714 92.8577H114.104V93.5824H110.823V86.7567H111.714V92.8577ZM117.391 93.6705C116.888 93.6705 116.431 93.5563 116.02 93.3278C115.615 93.0993 115.295 92.7761 115.06 92.3583C114.832 91.9339 114.717 91.4443 114.717 90.8893C114.717 90.3409 114.835 89.8578 115.07 89.44C115.311 89.0156 115.638 88.6925 116.049 88.4705C116.46 88.242 116.921 88.1277 117.43 88.1277C117.939 88.1277 118.399 88.242 118.811 88.4705C119.222 88.6925 119.545 89.0124 119.78 89.4302C120.022 89.848 120.143 90.3344 120.143 90.8893C120.143 91.4443 120.019 91.9339 119.77 92.3583C119.529 92.7761 119.199 93.0993 118.781 93.3278C118.364 93.5563 117.9 93.6705 117.391 93.6705ZM117.391 92.8871C117.711 92.8871 118.011 92.812 118.292 92.6619C118.572 92.5117 118.798 92.2865 118.967 91.9862C119.144 91.6858 119.232 91.3202 119.232 90.8893C119.232 90.4585 119.147 90.0929 118.977 89.7925C118.808 89.4922 118.586 89.2702 118.311 89.1266C118.037 88.9765 117.74 88.9014 117.42 88.9014C117.094 88.9014 116.793 88.9765 116.519 89.1266C116.252 89.2702 116.036 89.4922 115.873 89.7925C115.71 90.0929 115.628 90.4585 115.628 90.8893C115.628 91.3268 115.706 91.6956 115.863 91.9959C116.026 92.2963 116.242 92.5215 116.509 92.6717C116.777 92.8153 117.071 92.8871 117.391 92.8871ZM120.981 90.8796C120.981 90.3311 121.092 89.8513 121.314 89.44C121.536 89.0222 121.84 88.699 122.225 88.4705C122.617 88.242 123.051 88.1277 123.528 88.1277C123.998 88.1277 124.406 88.2289 124.752 88.4313C125.098 88.6337 125.356 88.8883 125.525 89.1952V88.2159H126.426V93.5824H125.525V92.5835C125.349 92.8969 125.085 93.158 124.732 93.367C124.386 93.5693 123.981 93.6705 123.518 93.6705C123.041 93.6705 122.61 93.553 122.225 93.318C121.84 93.083 121.536 92.7533 121.314 92.3289C121.092 91.9045 120.981 91.4214 120.981 90.8796ZM125.525 90.8893C125.525 90.4846 125.444 90.132 125.28 89.8317C125.117 89.5314 124.895 89.3029 124.615 89.1462C124.34 88.983 124.037 88.9014 123.704 88.9014C123.371 88.9014 123.067 88.9797 122.793 89.1364C122.519 89.2931 122.3 89.5216 122.137 89.8219C121.974 90.1222 121.892 90.4748 121.892 90.8796C121.892 91.2909 121.974 91.6499 122.137 91.9568C122.3 92.2571 122.519 92.4889 122.793 92.6521C123.067 92.8088 123.371 92.8871 123.704 92.8871C124.037 92.8871 124.34 92.8088 124.615 92.6521C124.895 92.4889 125.117 92.2571 125.28 91.9568C125.444 91.6499 125.525 91.2941 125.525 90.8893ZM127.599 90.8796C127.599 90.3311 127.71 89.8513 127.932 89.44C128.154 89.0222 128.458 88.699 128.843 88.4705C129.235 88.242 129.672 88.1277 130.155 88.1277C130.573 88.1277 130.961 88.2257 131.321 88.4215C131.68 88.6109 131.954 88.8622 132.143 89.1756V86.3356H133.044V93.5824H132.143V92.5737C131.967 92.8936 131.706 93.158 131.36 93.367C131.014 93.5693 130.609 93.6705 130.145 93.6705C129.669 93.6705 129.235 93.553 128.843 93.318C128.458 93.083 128.154 92.7533 127.932 92.3289C127.71 91.9045 127.599 91.4214 127.599 90.8796ZM132.143 90.8893C132.143 90.4846 132.062 90.132 131.898 89.8317C131.735 89.5314 131.513 89.3029 131.232 89.1462C130.958 88.983 130.655 88.9014 130.322 88.9014C129.989 88.9014 129.685 88.9797 129.411 89.1364C129.137 89.2931 128.918 89.5216 128.755 89.8219C128.592 90.1222 128.51 90.4748 128.51 90.8796C128.51 91.2909 128.592 91.6499 128.755 91.9568C128.918 92.2571 129.137 92.4889 129.411 92.6521C129.685 92.8088 129.989 92.8871 130.322 92.8871C130.655 92.8871 130.958 92.8088 131.232 92.6521C131.513 92.4889 131.735 92.2571 131.898 91.9568C132.062 91.6499 132.143 91.2941 132.143 90.8893ZM139.501 93.6705C138.999 93.6705 138.542 93.5563 138.13 93.3278C137.726 93.0993 137.406 92.7761 137.171 92.3583C136.942 91.9339 136.828 91.4443 136.828 90.8893C136.828 90.3409 136.945 89.8578 137.18 89.44C137.422 89.0156 137.748 88.6925 138.16 88.4705C138.571 88.242 139.031 88.1277 139.541 88.1277C140.05 88.1277 140.51 88.242 140.921 88.4705C141.333 88.6925 141.656 89.0124 141.891 89.4302C142.132 89.848 142.253 90.3344 142.253 90.8893C142.253 91.4443 142.129 91.9339 141.881 92.3583C141.64 92.7761 141.31 93.0993 140.892 93.3278C140.474 93.5563 140.011 93.6705 139.501 93.6705ZM139.501 92.8871C139.821 92.8871 140.122 92.812 140.402 92.6619C140.683 92.5117 140.908 92.2865 141.078 91.9862C141.254 91.6858 141.342 91.3202 141.342 90.8893C141.342 90.4585 141.258 90.0929 141.088 89.7925C140.918 89.4922 140.696 89.2702 140.422 89.1266C140.148 88.9765 139.851 88.9014 139.531 88.9014C139.204 88.9014 138.904 88.9765 138.63 89.1266C138.362 89.2702 138.147 89.4922 137.983 89.7925C137.82 90.0929 137.739 90.4585 137.739 90.8893C137.739 91.3268 137.817 91.6956 137.974 91.9959C138.137 92.2963 138.352 92.5215 138.62 92.6717C138.888 92.8153 139.181 92.8871 139.501 92.8871ZM145.609 88.9503H144.483V93.5824H143.591V88.9503H142.896V88.2159H143.591V87.834C143.591 87.2333 143.745 86.7959 144.052 86.5217C144.365 86.241 144.864 86.1006 145.55 86.1006V86.8449C145.158 86.8449 144.881 86.9232 144.718 87.0799C144.561 87.2301 144.483 87.4814 144.483 87.834V88.2159H145.609V88.9503ZM150.15 89.205C150.326 88.8981 150.587 88.6435 150.933 88.4411C151.286 88.2322 151.694 88.1277 152.157 88.1277C152.634 88.1277 153.065 88.242 153.45 88.4705C153.842 88.699 154.149 89.0222 154.37 89.44C154.592 89.8513 154.703 90.3311 154.703 90.8796C154.703 91.4214 154.592 91.9045 154.37 92.3289C154.149 92.7533 153.842 93.083 153.45 93.318C153.065 93.553 152.634 93.6705 152.157 93.6705C151.7 93.6705 151.296 93.5693 150.943 93.367C150.597 93.158 150.333 92.9002 150.15 92.5933V96.1286H149.259V88.2159H150.15V89.205ZM153.793 90.8796C153.793 90.4748 153.711 90.1222 153.548 89.8219C153.385 89.5216 153.163 89.2931 152.882 89.1364C152.608 88.9797 152.304 88.9014 151.971 88.9014C151.645 88.9014 151.341 88.983 151.06 89.1462C150.786 89.3029 150.564 89.5347 150.395 89.8415C150.231 90.1418 150.15 90.4911 150.15 90.8893C150.15 91.2941 150.231 91.6499 150.395 91.9568C150.564 92.2571 150.786 92.4889 151.06 92.6521C151.341 92.8088 151.645 92.8871 151.971 92.8871C152.304 92.8871 152.608 92.8088 152.882 92.6521C153.163 92.4889 153.385 92.2571 153.548 91.9568C153.711 91.6499 153.793 91.2909 153.793 90.8796ZM156.337 87.3443C156.167 87.3443 156.023 87.2855 155.906 87.168C155.788 87.0505 155.73 86.9069 155.73 86.7371C155.73 86.5674 155.788 86.4238 155.906 86.3063C156.023 86.1887 156.167 86.13 156.337 86.13C156.5 86.13 156.637 86.1887 156.748 86.3063C156.866 86.4238 156.924 86.5674 156.924 86.7371C156.924 86.9069 156.866 87.0505 156.748 87.168C156.637 87.2855 156.5 87.3443 156.337 87.3443ZM156.768 88.2159V93.5824H155.876V88.2159H156.768ZM161.087 93.5824L159.814 91.5846L158.59 93.5824H157.66L159.393 90.9187L157.66 88.2159H158.668L159.941 90.2038L161.156 88.2159H162.086L160.363 90.8698L162.096 93.5824H161.087ZM167.869 90.6935C167.869 90.8632 167.859 91.0428 167.84 91.2321H163.55C163.583 91.7609 163.762 92.1755 164.089 92.4758C164.422 92.7696 164.823 92.9165 165.293 92.9165C165.679 92.9165 165.999 92.8283 166.253 92.6521C166.514 92.4693 166.697 92.2277 166.802 91.9274H167.761C167.618 92.4432 167.33 92.8642 166.899 93.1907C166.469 93.5106 165.933 93.6705 165.293 93.6705C164.784 93.6705 164.327 93.5563 163.922 93.3278C163.524 93.0993 163.211 92.7761 162.982 92.3583C162.754 91.9339 162.64 91.4443 162.64 90.8893C162.64 90.3344 162.751 89.848 162.972 89.4302C163.194 89.0124 163.505 88.6925 163.903 88.4705C164.308 88.242 164.771 88.1277 165.293 88.1277C165.803 88.1277 166.253 88.2387 166.645 88.4607C167.037 88.6827 167.337 88.9895 167.546 89.3812C167.761 89.7664 167.869 90.2038 167.869 90.6935ZM166.948 90.5074C166.948 90.1679 166.873 89.8774 166.723 89.6359C166.573 89.3878 166.367 89.2017 166.106 89.0777C165.852 88.9471 165.568 88.8818 165.254 88.8818C164.804 88.8818 164.419 89.0254 164.099 89.3127C163.785 89.5999 163.606 89.9982 163.56 90.5074H166.948ZM169.936 86.3356V93.5824H169.045V86.3356H169.936Z"/>
</mask>
<path d="M111.714 92.8577H114.104V93.5824H110.823V86.7567H111.714V92.8577ZM117.391 93.6705C116.888 93.6705 116.431 93.5563 116.02 93.3278C115.615 93.0993 115.295 92.7761 115.06 92.3583C114.832 91.9339 114.717 91.4443 114.717 90.8893C114.717 90.3409 114.835 89.8578 115.07 89.44C115.311 89.0156 115.638 88.6925 116.049 88.4705C116.46 88.242 116.921 88.1277 117.43 88.1277C117.939 88.1277 118.399 88.242 118.811 88.4705C119.222 88.6925 119.545 89.0124 119.78 89.4302C120.022 89.848 120.143 90.3344 120.143 90.8893C120.143 91.4443 120.019 91.9339 119.77 92.3583C119.529 92.7761 119.199 93.0993 118.781 93.3278C118.364 93.5563 117.9 93.6705 117.391 93.6705ZM117.391 92.8871C117.711 92.8871 118.011 92.812 118.292 92.6619C118.572 92.5117 118.798 92.2865 118.967 91.9862C119.144 91.6858 119.232 91.3202 119.232 90.8893C119.232 90.4585 119.147 90.0929 118.977 89.7925C118.808 89.4922 118.586 89.2702 118.311 89.1266C118.037 88.9765 117.74 88.9014 117.42 88.9014C117.094 88.9014 116.793 88.9765 116.519 89.1266C116.252 89.2702 116.036 89.4922 115.873 89.7925C115.71 90.0929 115.628 90.4585 115.628 90.8893C115.628 91.3268 115.706 91.6956 115.863 91.9959C116.026 92.2963 116.242 92.5215 116.509 92.6717C116.777 92.8153 117.071 92.8871 117.391 92.8871ZM120.981 90.8796C120.981 90.3311 121.092 89.8513 121.314 89.44C121.536 89.0222 121.84 88.699 122.225 88.4705C122.617 88.242 123.051 88.1277 123.528 88.1277C123.998 88.1277 124.406 88.2289 124.752 88.4313C125.098 88.6337 125.356 88.8883 125.525 89.1952V88.2159H126.426V93.5824H125.525V92.5835C125.349 92.8969 125.085 93.158 124.732 93.367C124.386 93.5693 123.981 93.6705 123.518 93.6705C123.041 93.6705 122.61 93.553 122.225 93.318C121.84 93.083 121.536 92.7533 121.314 92.3289C121.092 91.9045 120.981 91.4214 120.981 90.8796ZM125.525 90.8893C125.525 90.4846 125.444 90.132 125.28 89.8317C125.117 89.5314 124.895 89.3029 124.615 89.1462C124.34 88.983 124.037 88.9014 123.704 88.9014C123.371 88.9014 123.067 88.9797 122.793 89.1364C122.519 89.2931 122.3 89.5216 122.137 89.8219C121.974 90.1222 121.892 90.4748 121.892 90.8796C121.892 91.2909 121.974 91.6499 122.137 91.9568C122.3 92.2571 122.519 92.4889 122.793 92.6521C123.067 92.8088 123.371 92.8871 123.704 92.8871C124.037 92.8871 124.34 92.8088 124.615 92.6521C124.895 92.4889 125.117 92.2571 125.28 91.9568C125.444 91.6499 125.525 91.2941 125.525 90.8893ZM127.599 90.8796C127.599 90.3311 127.71 89.8513 127.932 89.44C128.154 89.0222 128.458 88.699 128.843 88.4705C129.235 88.242 129.672 88.1277 130.155 88.1277C130.573 88.1277 130.961 88.2257 131.321 88.4215C131.68 88.6109 131.954 88.8622 132.143 89.1756V86.3356H133.044V93.5824H132.143V92.5737C131.967 92.8936 131.706 93.158 131.36 93.367C131.014 93.5693 130.609 93.6705 130.145 93.6705C129.669 93.6705 129.235 93.553 128.843 93.318C128.458 93.083 128.154 92.7533 127.932 92.3289C127.71 91.9045 127.599 91.4214 127.599 90.8796ZM132.143 90.8893C132.143 90.4846 132.062 90.132 131.898 89.8317C131.735 89.5314 131.513 89.3029 131.232 89.1462C130.958 88.983 130.655 88.9014 130.322 88.9014C129.989 88.9014 129.685 88.9797 129.411 89.1364C129.137 89.2931 128.918 89.5216 128.755 89.8219C128.592 90.1222 128.51 90.4748 128.51 90.8796C128.51 91.2909 128.592 91.6499 128.755 91.9568C128.918 92.2571 129.137 92.4889 129.411 92.6521C129.685 92.8088 129.989 92.8871 130.322 92.8871C130.655 92.8871 130.958 92.8088 131.232 92.6521C131.513 92.4889 131.735 92.2571 131.898 91.9568C132.062 91.6499 132.143 91.2941 132.143 90.8893ZM139.501 93.6705C138.999 93.6705 138.542 93.5563 138.13 93.3278C137.726 93.0993 137.406 92.7761 137.171 92.3583C136.942 91.9339 136.828 91.4443 136.828 90.8893C136.828 90.3409 136.945 89.8578 137.18 89.44C137.422 89.0156 137.748 88.6925 138.16 88.4705C138.571 88.242 139.031 88.1277 139.541 88.1277C140.05 88.1277 140.51 88.242 140.921 88.4705C141.333 88.6925 141.656 89.0124 141.891 89.4302C142.132 89.848 142.253 90.3344 142.253 90.8893C142.253 91.4443 142.129 91.9339 141.881 92.3583C141.64 92.7761 141.31 93.0993 140.892 93.3278C140.474 93.5563 140.011 93.6705 139.501 93.6705ZM139.501 92.8871C139.821 92.8871 140.122 92.812 140.402 92.6619C140.683 92.5117 140.908 92.2865 141.078 91.9862C141.254 91.6858 141.342 91.3202 141.342 90.8893C141.342 90.4585 141.258 90.0929 141.088 89.7925C140.918 89.4922 140.696 89.2702 140.422 89.1266C140.148 88.9765 139.851 88.9014 139.531 88.9014C139.204 88.9014 138.904 88.9765 138.63 89.1266C138.362 89.2702 138.147 89.4922 137.983 89.7925C137.82 90.0929 137.739 90.4585 137.739 90.8893C137.739 91.3268 137.817 91.6956 137.974 91.9959C138.137 92.2963 138.352 92.5215 138.62 92.6717C138.888 92.8153 139.181 92.8871 139.501 92.8871ZM145.609 88.9503H144.483V93.5824H143.591V88.9503H142.896V88.2159H143.591V87.834C143.591 87.2333 143.745 86.7959 144.052 86.5217C144.365 86.241 144.864 86.1006 145.55 86.1006V86.8449C145.158 86.8449 144.881 86.9232 144.718 87.0799C144.561 87.2301 144.483 87.4814 144.483 87.834V88.2159H145.609V88.9503ZM150.15 89.205C150.326 88.8981 150.587 88.6435 150.933 88.4411C151.286 88.2322 151.694 88.1277 152.157 88.1277C152.634 88.1277 153.065 88.242 153.45 88.4705C153.842 88.699 154.149 89.0222 154.37 89.44C154.592 89.8513 154.703 90.3311 154.703 90.8796C154.703 91.4214 154.592 91.9045 154.37 92.3289C154.149 92.7533 153.842 93.083 153.45 93.318C153.065 93.553 152.634 93.6705 152.157 93.6705C151.7 93.6705 151.296 93.5693 150.943 93.367C150.597 93.158 150.333 92.9002 150.15 92.5933V96.1286H149.259V88.2159H150.15V89.205ZM153.793 90.8796C153.793 90.4748 153.711 90.1222 153.548 89.8219C153.385 89.5216 153.163 89.2931 152.882 89.1364C152.608 88.9797 152.304 88.9014 151.971 88.9014C151.645 88.9014 151.341 88.983 151.06 89.1462C150.786 89.3029 150.564 89.5347 150.395 89.8415C150.231 90.1418 150.15 90.4911 150.15 90.8893C150.15 91.2941 150.231 91.6499 150.395 91.9568C150.564 92.2571 150.786 92.4889 151.06 92.6521C151.341 92.8088 151.645 92.8871 151.971 92.8871C152.304 92.8871 152.608 92.8088 152.882 92.6521C153.163 92.4889 153.385 92.2571 153.548 91.9568C153.711 91.6499 153.793 91.2909 153.793 90.8796ZM156.337 87.3443C156.167 87.3443 156.023 87.2855 155.906 87.168C155.788 87.0505 155.73 86.9069 155.73 86.7371C155.73 86.5674 155.788 86.4238 155.906 86.3063C156.023 86.1887 156.167 86.13 156.337 86.13C156.5 86.13 156.637 86.1887 156.748 86.3063C156.866 86.4238 156.924 86.5674 156.924 86.7371C156.924 86.9069 156.866 87.0505 156.748 87.168C156.637 87.2855 156.5 87.3443 156.337 87.3443ZM156.768 88.2159V93.5824H155.876V88.2159H156.768ZM161.087 93.5824L159.814 91.5846L158.59 93.5824H157.66L159.393 90.9187L157.66 88.2159H158.668L159.941 90.2038L161.156 88.2159H162.086L160.363 90.8698L162.096 93.5824H161.087ZM167.869 90.6935C167.869 90.8632 167.859 91.0428 167.84 91.2321H163.55C163.583 91.7609 163.762 92.1755 164.089 92.4758C164.422 92.7696 164.823 92.9165 165.293 92.9165C165.679 92.9165 165.999 92.8283 166.253 92.6521C166.514 92.4693 166.697 92.2277 166.802 91.9274H167.761C167.618 92.4432 167.33 92.8642 166.899 93.1907C166.469 93.5106 165.933 93.6705 165.293 93.6705C164.784 93.6705 164.327 93.5563 163.922 93.3278C163.524 93.0993 163.211 92.7761 162.982 92.3583C162.754 91.9339 162.64 91.4443 162.64 90.8893C162.64 90.3344 162.751 89.848 162.972 89.4302C163.194 89.0124 163.505 88.6925 163.903 88.4705C164.308 88.242 164.771 88.1277 165.293 88.1277C165.803 88.1277 166.253 88.2387 166.645 88.4607C167.037 88.6827 167.337 88.9895 167.546 89.3812C167.761 89.7664 167.869 90.2038 167.869 90.6935ZM166.948 90.5074C166.948 90.1679 166.873 89.8774 166.723 89.6359C166.573 89.3878 166.367 89.2017 166.106 89.0777C165.852 88.9471 165.568 88.8818 165.254 88.8818C164.804 88.8818 164.419 89.0254 164.099 89.3127C163.785 89.5999 163.606 89.9982 163.56 90.5074H166.948ZM169.936 86.3356V93.5824H169.045V86.3356H169.936Z" fill="#BBB9B9"/>
<path d="M111.714 92.8577H111.399V93.1736H111.714V92.8577ZM114.104 92.8577H114.42V92.5418H114.104V92.8577ZM114.104 93.5824V93.8983H114.42V93.5824H114.104ZM110.823 93.5824H110.507V93.8983H110.823V93.5824ZM110.823 86.7567V86.4408H110.507V86.7567H110.823ZM111.714 86.7567H112.03V86.4408H111.714V86.7567ZM111.714 93.1736H114.104V92.5418H111.714V93.1736ZM113.788 92.8577V93.5824H114.42V92.8577H113.788ZM114.104 93.2665H110.823V93.8983H114.104V93.2665ZM111.139 93.5824V86.7567H110.507V93.5824H111.139ZM110.823 87.0726H111.714V86.4408H110.823V87.0726ZM111.399 86.7567V92.8577H112.03V86.7567H111.399ZM116.02 93.3278L115.865 93.6029L115.866 93.6039L116.02 93.3278ZM115.06 92.3583L114.782 92.5081L114.785 92.5132L115.06 92.3583ZM115.07 89.44L114.795 89.2837L114.795 89.2851L115.07 89.44ZM116.049 88.4705L116.199 88.7485L116.203 88.7466L116.049 88.4705ZM118.811 88.4705L118.657 88.7467L118.661 88.7485L118.811 88.4705ZM119.78 89.4302L119.505 89.5851L119.507 89.5883L119.78 89.4302ZM119.77 92.3583L119.498 92.1988L119.497 92.2002L119.77 92.3583ZM118.781 93.3278L118.933 93.6049L118.933 93.6049L118.781 93.3278ZM118.967 91.9862L118.695 91.8262L118.692 91.8307L118.967 91.9862ZM118.311 89.1266L118.16 89.4037L118.165 89.4065L118.311 89.1266ZM116.519 89.1266L116.669 89.405L116.671 89.4037L116.519 89.1266ZM115.873 89.7925L116.15 89.9434L116.15 89.9434L115.873 89.7925ZM115.863 91.9959L115.583 92.1421L115.586 92.1468L115.863 91.9959ZM116.509 92.6717L116.355 92.9472L116.36 92.95L116.509 92.6717ZM117.391 93.3546C116.938 93.3546 116.534 93.2523 116.173 93.0516L115.866 93.6039C116.328 93.8603 116.838 93.9864 117.391 93.9864V93.3546ZM116.175 93.0527C115.822 92.8535 115.543 92.5726 115.335 92.2034L114.785 92.5132C115.047 92.9796 115.408 93.3451 115.865 93.6029L116.175 93.0527ZM115.338 92.2085C115.138 91.8367 115.033 91.4 115.033 90.8893H114.401C114.401 91.4886 114.525 92.0311 114.782 92.5081L115.338 92.2085ZM115.033 90.8893C115.033 90.3873 115.14 89.959 115.345 89.5949L114.795 89.2851C114.529 89.7567 114.401 90.2946 114.401 90.8893H115.033ZM115.344 89.5963C115.558 89.2209 115.842 88.9411 116.199 88.7485L115.899 88.1925C115.433 88.4439 115.065 88.8103 114.795 89.2837L115.344 89.5963ZM116.203 88.7466C116.563 88.5463 116.97 88.4436 117.43 88.4436V87.8118C116.872 87.8118 116.358 87.9377 115.896 88.1943L116.203 88.7466ZM117.43 88.4436C117.89 88.4436 118.297 88.5463 118.657 88.7466L118.964 88.1943C118.502 87.9377 117.988 87.8118 117.43 87.8118V88.4436ZM118.661 88.7485C119.018 88.9413 119.298 89.2179 119.505 89.5851L120.056 89.2753C119.792 88.8068 119.426 88.4436 118.961 88.1925L118.661 88.7485ZM119.507 89.5883C119.717 89.9513 119.827 90.3815 119.827 90.8893H120.459C120.459 90.2873 120.327 89.7448 120.054 89.2721L119.507 89.5883ZM119.827 90.8893C119.827 91.3956 119.714 91.8289 119.498 92.1988L120.043 92.5177C120.323 92.039 120.459 91.4929 120.459 90.8893H119.827ZM119.497 92.2002C119.284 92.5686 118.996 92.8503 118.63 93.0506L118.933 93.6049C119.402 93.3483 119.774 92.9836 120.044 92.5164L119.497 92.2002ZM118.63 93.0506C118.262 93.2519 117.851 93.3546 117.391 93.3546V93.9864C117.949 93.9864 118.465 93.8606 118.933 93.6049L118.63 93.0506ZM117.391 93.203C117.762 93.203 118.114 93.1152 118.441 92.9404L118.143 92.3833C117.908 92.5088 117.659 92.5712 117.391 92.5712V93.203ZM118.441 92.9404C118.779 92.7596 119.046 92.4895 119.242 92.1416L118.692 91.8307C118.55 92.0834 118.366 92.2638 118.143 92.3833L118.441 92.9404ZM119.24 92.1461C119.451 91.787 119.548 91.3632 119.548 90.8893H118.916C118.916 91.2773 118.837 91.5847 118.695 91.8262L119.24 92.1461ZM119.548 90.8893C119.548 90.4174 119.455 89.9953 119.252 89.6371L118.702 89.948C118.839 90.1904 118.916 90.4995 118.916 90.8893H119.548ZM119.252 89.6371C119.056 89.2901 118.792 89.0218 118.458 88.8468L118.165 89.4065C118.379 89.5187 118.559 89.6944 118.702 89.948L119.252 89.6371ZM118.463 88.8495C118.141 88.6733 117.792 88.5855 117.42 88.5855V89.2173C117.688 89.2173 117.933 89.2796 118.16 89.4037L118.463 88.8495ZM117.42 88.5855C117.043 88.5855 116.69 88.6728 116.368 88.8495L116.671 89.4037C116.897 89.2802 117.144 89.2173 117.42 89.2173V88.5855ZM116.37 88.8483C116.041 89.0245 115.784 89.2943 115.595 89.6417L116.15 89.9434C116.288 89.6902 116.462 89.516 116.669 89.405L116.37 88.8483ZM115.595 89.6417C115.401 89.9988 115.312 90.4192 115.312 90.8893H115.944C115.944 90.4977 116.018 90.1869 116.15 89.9434L115.595 89.6417ZM115.312 90.8893C115.312 91.3633 115.397 91.7854 115.583 92.1421L116.143 91.8498C116.016 91.6058 115.944 91.2903 115.944 90.8893H115.312ZM115.586 92.1468C115.774 92.4933 116.03 92.7646 116.355 92.9472L116.664 92.3961C116.454 92.2784 116.279 92.0992 116.141 91.8451L115.586 92.1468ZM116.36 92.95C116.676 93.1196 117.022 93.203 117.391 93.203V92.5712C117.12 92.5712 116.878 92.511 116.659 92.3933L116.36 92.95ZM121.314 89.44L121.592 89.59L121.593 89.5882L121.314 89.44ZM122.225 88.4705L122.066 88.1976L122.064 88.1988L122.225 88.4705ZM124.752 88.4313L124.592 88.704L124.592 88.704L124.752 88.4313ZM125.525 89.1952L125.249 89.3481L125.841 89.1952H125.525ZM125.525 88.2159V87.9H125.209V88.2159H125.525ZM126.426 88.2159H126.742V87.9H126.426V88.2159ZM126.426 93.5824V93.8983H126.742V93.5824H126.426ZM125.525 93.5824H125.209V93.8983H125.525V93.5824ZM125.525 92.5835H125.841V91.3776L125.25 92.4286L125.525 92.5835ZM124.732 93.367L124.892 93.6396L124.893 93.6387L124.732 93.367ZM122.225 93.318L122.061 93.5877L122.061 93.5877L122.225 93.318ZM121.314 92.3289L121.594 92.1825L121.594 92.1825L121.314 92.3289ZM125.28 89.8317L125.558 89.6809L125.28 89.8317ZM124.615 89.1462L124.453 89.4178L124.461 89.422L124.615 89.1462ZM122.793 89.1364L122.636 88.8621L122.636 88.8621L122.793 89.1364ZM122.137 89.8219L122.414 89.9728L122.414 89.9728L122.137 89.8219ZM122.137 91.9568L121.858 92.1051L121.859 92.1076L122.137 91.9568ZM122.793 92.6521L122.631 92.9236L122.636 92.9263L122.793 92.6521ZM124.615 92.6521L124.771 92.9264L124.773 92.9252L124.615 92.6521ZM125.28 91.9568L125.558 92.1076L125.559 92.1051L125.28 91.9568ZM121.297 90.8796C121.297 90.3744 121.399 89.9478 121.592 89.59L121.036 89.29C120.785 89.7548 120.665 90.2879 120.665 90.8796H121.297ZM121.593 89.5882C121.79 89.2185 122.054 88.9394 122.386 88.7422L122.064 88.1988C121.626 88.4586 121.283 88.8258 121.035 89.2918L121.593 89.5882ZM122.384 88.7434C122.725 88.5445 123.104 88.4436 123.528 88.4436V87.8118C122.998 87.8118 122.508 87.9395 122.066 88.1976L122.384 88.7434ZM123.528 88.4436C123.951 88.4436 124.302 88.5345 124.592 88.704L124.911 88.1586C124.509 87.9234 124.044 87.8118 123.528 87.8118V88.4436ZM124.592 88.704C124.896 88.8819 125.11 89.0977 125.249 89.3481L125.802 89.0423C125.601 88.6789 125.299 88.3855 124.911 88.1586L124.592 88.704ZM125.841 89.1952V88.2159H125.209V89.1952H125.841ZM125.525 88.5318H126.426V87.9H125.525V88.5318ZM126.11 88.2159V93.5824H126.742V88.2159H126.11ZM126.426 93.2665H125.525V93.8983H126.426V93.2665ZM125.841 93.5824V92.5835H125.209V93.5824H125.841ZM125.25 92.4286C125.104 92.6873 124.883 92.9105 124.571 93.0952L124.893 93.6387C125.287 93.4056 125.594 93.1065 125.801 92.7384L125.25 92.4286ZM124.573 93.0943C124.282 93.2642 123.934 93.3546 123.518 93.3546V93.9864C124.028 93.9864 124.49 93.8745 124.892 93.6396L124.573 93.0943ZM123.518 93.3546C123.096 93.3546 122.722 93.2514 122.39 93.0483L122.061 93.5877C122.498 93.8546 122.986 93.9864 123.518 93.9864V93.3546ZM122.39 93.0483C122.056 92.845 121.791 92.5593 121.594 92.1825L121.034 92.4753C121.281 92.9472 121.623 93.3209 122.061 93.5877L122.39 93.0483ZM121.594 92.1825C121.399 91.809 121.297 91.3772 121.297 90.8796H120.665C120.665 91.4656 120.786 92.0001 121.034 92.4753L121.594 92.1825ZM125.841 90.8893C125.841 90.4416 125.751 90.0353 125.558 89.6809L125.003 89.9826C125.137 90.2287 125.209 90.5276 125.209 90.8893H125.841ZM125.558 89.6809C125.368 89.3315 125.105 89.058 124.769 88.8704L124.461 89.422C124.686 89.5477 124.866 89.7313 125.003 89.9826L125.558 89.6809ZM124.776 88.8748C124.451 88.6812 124.091 88.5855 123.704 88.5855V89.2173C123.982 89.2173 124.23 89.2848 124.453 89.4177L124.776 88.8748ZM123.704 88.5855C123.319 88.5855 122.961 88.6767 122.636 88.8621L122.95 89.4107C123.174 89.2828 123.423 89.2173 123.704 89.2173V88.5855ZM122.636 88.8621C122.307 89.0503 122.048 89.3236 121.859 89.6711L122.414 89.9728C122.552 89.7196 122.731 89.5359 122.95 89.4107L122.636 88.8621ZM121.859 89.6711C121.667 90.0255 121.576 90.4318 121.576 90.8796H122.208C122.208 90.5178 122.281 90.2189 122.414 89.9728L121.859 89.6711ZM121.576 90.8796C121.576 91.3331 121.666 91.7449 121.858 92.1051L122.416 91.8084C122.281 91.5549 122.208 91.2486 122.208 90.8796H121.576ZM121.859 92.1076C122.048 92.4541 122.305 92.7292 122.631 92.9235L122.955 92.3806C122.733 92.2485 122.553 92.06 122.414 91.8059L121.859 92.1076ZM122.636 92.9263C122.961 93.1118 123.319 93.203 123.704 93.203V92.5712C123.423 92.5712 123.174 92.5057 122.95 92.3778L122.636 92.9263ZM123.704 93.203C124.089 93.203 124.447 93.1118 124.771 92.9263L124.458 92.3778C124.234 92.5057 123.985 92.5712 123.704 92.5712V93.203ZM124.773 92.9252C125.107 92.7313 125.369 92.456 125.558 92.1076L125.003 91.8059C124.866 92.0582 124.684 92.2464 124.456 92.379L124.773 92.9252ZM125.559 92.1051C125.751 91.7456 125.841 91.3373 125.841 90.8893H125.209C125.209 91.2509 125.137 91.5542 125.002 91.8084L125.559 92.1051ZM127.932 89.44L128.21 89.59L128.211 89.5882L127.932 89.44ZM128.843 88.4705L128.684 88.1976L128.682 88.1988L128.843 88.4705ZM131.321 88.4215L131.169 88.6989L131.173 88.701L131.321 88.4215ZM132.143 89.1756L131.873 89.3389L132.459 90.3093V89.1756H132.143ZM132.143 86.3356V86.0197H131.827V86.3356H132.143ZM133.044 86.3356H133.36V86.0197H133.044V86.3356ZM133.044 93.5824V93.8983H133.36V93.5824H133.044ZM132.143 93.5824H131.827V93.8983H132.143V93.5824ZM132.143 92.5737H132.459L131.866 92.4213L132.143 92.5737ZM131.36 93.367L131.519 93.6397L131.523 93.6374L131.36 93.367ZM128.843 93.318L128.678 93.5877L128.68 93.5889L128.843 93.318ZM127.932 92.3289L128.212 92.1825L128.212 92.1825L127.932 92.3289ZM131.898 89.8317L132.176 89.6809L131.898 89.8317ZM131.232 89.1462L131.071 89.4178L131.078 89.422L131.232 89.1462ZM129.411 89.1364L129.254 88.8621L129.254 88.8621L129.411 89.1364ZM128.755 89.8219L129.032 89.9728L129.032 89.9728L128.755 89.8219ZM128.755 91.9568L128.476 92.1051L128.477 92.1076L128.755 91.9568ZM129.411 92.6521L129.249 92.9236L129.254 92.9263L129.411 92.6521ZM131.232 92.6521L131.389 92.9264L131.391 92.9252L131.232 92.6521ZM131.898 91.9568L132.176 92.1076L132.177 92.1051L131.898 91.9568ZM127.915 90.8796C127.915 90.3744 128.017 89.9478 128.21 89.59L127.654 89.29C127.403 89.7548 127.283 90.2879 127.283 90.8796H127.915ZM128.211 89.5882C128.408 89.2185 128.672 88.9394 129.004 88.7422L128.682 88.1988C128.244 88.4586 127.901 88.8258 127.653 89.2918L128.211 89.5882ZM129.002 88.7434C129.342 88.5449 129.724 88.4436 130.155 88.4436V87.8118C129.62 87.8118 129.127 87.9391 128.684 88.1976L129.002 88.7434ZM130.155 88.4436C130.521 88.4436 130.858 88.5289 131.169 88.6989L131.472 88.1442C131.065 87.9225 130.625 87.8118 130.155 87.8118V88.4436ZM131.173 88.701C131.487 88.8665 131.716 89.0799 131.873 89.3389L132.414 89.0122C132.191 88.6445 131.872 88.3552 131.468 88.1421L131.173 88.701ZM132.459 89.1756V86.3356H131.827V89.1756H132.459ZM132.143 86.6515H133.044V86.0197H132.143V86.6515ZM132.728 86.3356V93.5824H133.36V86.3356H132.728ZM133.044 93.2665H132.143V93.8983H133.044V93.2665ZM132.459 93.5824V92.5737H131.827V93.5824H132.459ZM131.866 92.4213C131.72 92.6875 131.5 92.9132 131.196 93.0965L131.523 93.6374C131.911 93.4029 132.214 93.0997 132.42 92.7262L131.866 92.4213ZM131.2 93.0943C130.91 93.2642 130.562 93.3546 130.145 93.3546V93.9864C130.656 93.9864 131.118 93.8745 131.519 93.6396L131.2 93.0943ZM130.145 93.3546C129.723 93.3546 129.346 93.2514 129.005 93.0471L128.68 93.5889C129.123 93.8547 129.614 93.9864 130.145 93.9864V93.3546ZM129.007 93.0483C128.674 92.845 128.409 92.5593 128.212 92.1825L127.652 92.4753C127.899 92.9472 128.241 93.3209 128.678 93.5877L129.007 93.0483ZM128.212 92.1825C128.017 91.809 127.915 91.3772 127.915 90.8796H127.283C127.283 91.4656 127.404 92.0001 127.652 92.4753L128.212 92.1825ZM132.459 90.8893C132.459 90.4416 132.369 90.0353 132.176 89.6809L131.621 89.9826C131.755 90.2287 131.827 90.5276 131.827 90.8893H132.459ZM132.176 89.6809C131.986 89.3315 131.723 89.058 131.386 88.8704L131.078 89.422C131.304 89.5477 131.484 89.7313 131.621 89.9826L132.176 89.6809ZM131.394 88.8748C131.069 88.6812 130.709 88.5855 130.322 88.5855V89.2173C130.6 89.2173 130.848 89.2848 131.071 89.4177L131.394 88.8748ZM130.322 88.5855C129.937 88.5855 129.579 88.6767 129.254 88.8621L129.568 89.4107C129.792 89.2828 130.041 89.2173 130.322 89.2173V88.5855ZM129.254 88.8621C128.925 89.0503 128.666 89.3236 128.477 89.6711L129.032 89.9728C129.17 89.7196 129.349 89.5359 129.568 89.4107L129.254 88.8621ZM128.477 89.6711C128.285 90.0255 128.194 90.4318 128.194 90.8796H128.826C128.826 90.5178 128.899 90.2189 129.032 89.9728L128.477 89.6711ZM128.194 90.8796C128.194 91.3331 128.284 91.7449 128.476 92.1051L129.034 91.8084C128.899 91.5549 128.826 91.2486 128.826 90.8796H128.194ZM128.477 92.1076C128.666 92.4541 128.923 92.7292 129.249 92.9235L129.573 92.3806C129.351 92.2485 129.17 92.06 129.032 91.8059L128.477 92.1076ZM129.254 92.9263C129.579 93.1118 129.937 93.203 130.322 93.203V92.5712C130.041 92.5712 129.792 92.5057 129.568 92.3778L129.254 92.9263ZM130.322 93.203C130.707 93.203 131.065 93.1118 131.389 92.9263L131.076 92.3778C130.852 92.5057 130.603 92.5712 130.322 92.5712V93.203ZM131.391 92.9252C131.725 92.7313 131.987 92.456 132.176 92.1076L131.621 91.8059C131.484 92.0582 131.302 92.2464 131.074 92.379L131.391 92.9252ZM132.177 92.1051C132.368 91.7456 132.459 91.3373 132.459 90.8893H131.827C131.827 91.2509 131.755 91.5542 131.619 91.8084L132.177 92.1051ZM138.13 93.3278L137.975 93.6029L137.977 93.6039L138.13 93.3278ZM137.171 92.3583L136.892 92.5081L136.895 92.5132L137.171 92.3583ZM137.18 89.44L136.906 89.2837L136.905 89.2851L137.18 89.44ZM138.16 88.4705L138.31 88.7485L138.313 88.7466L138.16 88.4705ZM140.921 88.4705L140.768 88.7467L140.771 88.7485L140.921 88.4705ZM141.891 89.4302L141.616 89.5851L141.617 89.5883L141.891 89.4302ZM141.881 92.3583L141.608 92.1988L141.608 92.2002L141.881 92.3583ZM140.892 93.3278L141.044 93.6049L141.044 93.6049L140.892 93.3278ZM141.078 91.9862L140.806 91.8262L140.803 91.8307L141.078 91.9862ZM140.422 89.1266L140.27 89.4037L140.275 89.4065L140.422 89.1266ZM138.63 89.1266L138.779 89.405L138.782 89.4037L138.63 89.1266ZM137.983 89.7925L138.261 89.9434L138.261 89.9434L137.983 89.7925ZM137.974 91.9959L137.694 92.1421L137.696 92.1468L137.974 91.9959ZM138.62 92.6717L138.465 92.9472L138.471 92.95L138.62 92.6717ZM139.501 93.3546C139.049 93.3546 138.645 93.2523 138.284 93.0516L137.977 93.6039C138.438 93.8603 138.949 93.9864 139.501 93.9864V93.3546ZM138.286 93.0527C137.933 92.8535 137.654 92.5726 137.446 92.2034L136.895 92.5132C137.158 92.9796 137.518 93.3451 137.975 93.6029L138.286 93.0527ZM137.449 92.2085C137.249 91.8367 137.144 91.4 137.144 90.8893H136.512C136.512 91.4886 136.636 92.0311 136.893 92.5081L137.449 92.2085ZM137.144 90.8893C137.144 90.3873 137.251 89.959 137.456 89.5949L136.905 89.2851C136.64 89.7567 136.512 90.2946 136.512 90.8893H137.144ZM137.455 89.5963C137.669 89.2209 137.953 88.9411 138.31 88.7485L138.01 88.1925C137.544 88.4439 137.175 88.8103 136.906 89.2837L137.455 89.5963ZM138.313 88.7466C138.674 88.5463 139.08 88.4436 139.541 88.4436V87.8118C138.982 87.8118 138.468 87.9377 138.006 88.1943L138.313 88.7466ZM139.541 88.4436C140.001 88.4436 140.407 88.5463 140.768 88.7466L141.075 88.1943C140.613 87.9377 140.099 87.8118 139.541 87.8118V88.4436ZM140.771 88.7485C141.129 88.9413 141.409 89.2179 141.616 89.5851L142.166 89.2753C141.903 88.8068 141.537 88.4436 141.071 88.1925L140.771 88.7485ZM141.617 89.5883C141.827 89.9513 141.937 90.3815 141.937 90.8893H142.569C142.569 90.2873 142.438 89.7448 142.164 89.2721L141.617 89.5883ZM141.937 90.8893C141.937 91.3956 141.825 91.8289 141.608 92.1988L142.154 92.5177C142.434 92.039 142.569 91.4929 142.569 90.8893H141.937ZM141.608 92.2002C141.395 92.5686 141.107 92.8503 140.74 93.0506L141.044 93.6049C141.513 93.3483 141.884 92.9836 142.155 92.5164L141.608 92.2002ZM140.74 93.0506C140.372 93.2519 139.961 93.3546 139.501 93.3546V93.9864C140.06 93.9864 140.576 93.8606 141.044 93.6049L140.74 93.0506ZM139.501 93.203C139.873 93.203 140.225 93.1152 140.551 92.9404L140.253 92.3833C140.019 92.5088 139.77 92.5712 139.501 92.5712V93.203ZM140.551 92.9404C140.889 92.7596 141.156 92.4895 141.353 92.1416L140.803 91.8307C140.66 92.0834 140.477 92.2638 140.253 92.3833L140.551 92.9404ZM141.35 92.1461C141.561 91.787 141.658 91.3632 141.658 90.8893H141.027C141.027 91.2773 140.947 91.5847 140.806 91.8262L141.35 92.1461ZM141.658 90.8893C141.658 90.4174 141.565 89.9953 141.363 89.6371L140.813 89.948C140.95 90.1904 141.027 90.4995 141.027 90.8893H141.658ZM141.363 89.6371C141.167 89.2901 140.903 89.0218 140.569 88.8468L140.275 89.4065C140.49 89.5187 140.669 89.6944 140.813 89.948L141.363 89.6371ZM140.574 88.8495C140.252 88.6733 139.902 88.5855 139.531 88.5855V89.2173C139.799 89.2173 140.044 89.2796 140.27 89.4037L140.574 88.8495ZM139.531 88.5855C139.154 88.5855 138.801 88.6728 138.478 88.8495L138.782 89.4037C139.007 89.2802 139.255 89.2173 139.531 89.2173V88.5855ZM138.48 88.8483C138.152 89.0245 137.895 89.2943 137.706 89.6417L138.261 89.9434C138.399 89.6902 138.572 89.516 138.779 89.405L138.48 88.8483ZM137.706 89.6417C137.512 89.9988 137.423 90.4192 137.423 90.8893H138.055C138.055 90.4977 138.129 90.1869 138.261 89.9434L137.706 89.6417ZM137.423 90.8893C137.423 91.3633 137.508 91.7854 137.694 92.1421L138.254 91.8498C138.126 91.6058 138.055 91.2903 138.055 90.8893H137.423ZM137.696 92.1468C137.884 92.4933 138.14 92.7646 138.465 92.9472L138.775 92.3961C138.565 92.2784 138.389 92.0992 138.251 91.8451L137.696 92.1468ZM138.471 92.95C138.787 93.1196 139.132 93.203 139.501 93.203V92.5712C139.231 92.5712 138.989 92.511 138.769 92.3933L138.471 92.95ZM145.609 88.9503V89.2662H145.925V88.9503H145.609ZM144.483 88.9503V88.6344H144.167V88.9503H144.483ZM144.483 93.5824V93.8983H144.798V93.5824H144.483ZM143.591 93.5824H143.275V93.8983H143.591V93.5824ZM143.591 88.9503H143.907V88.6344H143.591V88.9503ZM142.896 88.9503H142.58V89.2662H142.896V88.9503ZM142.896 88.2159V87.9H142.58V88.2159H142.896ZM143.591 88.2159V88.5318H143.907V88.2159H143.591ZM144.052 86.5217L144.262 86.7573L144.262 86.757L144.052 86.5217ZM145.55 86.1006H145.866V85.7847H145.55V86.1006ZM145.55 86.8449V87.1608H145.866V86.8449H145.55ZM144.718 87.0799L144.936 87.308L144.936 87.3078L144.718 87.0799ZM144.483 88.2159H144.167V88.5318H144.483V88.2159ZM145.609 88.2159H145.925V87.9H145.609V88.2159ZM145.609 88.6344H144.483V89.2662H145.609V88.6344ZM144.167 88.9503V93.5824H144.798V88.9503H144.167ZM144.483 93.2665H143.591V93.8983H144.483V93.2665ZM143.907 93.5824V88.9503H143.275V93.5824H143.907ZM143.591 88.6344H142.896V89.2662H143.591V88.6344ZM143.212 88.9503V88.2159H142.58V88.9503H143.212ZM142.896 88.5318H143.591V87.9H142.896V88.5318ZM143.907 88.2159V87.834H143.275V88.2159H143.907ZM143.907 87.834C143.907 87.2812 144.048 86.9483 144.262 86.7573L143.841 86.2861C143.441 86.6435 143.275 87.1854 143.275 87.834H143.907ZM144.262 86.757C144.491 86.5523 144.896 86.4165 145.55 86.4165V85.7847C144.833 85.7847 144.239 85.9296 143.841 86.2864L144.262 86.757ZM145.234 86.1006V86.8449H145.866V86.1006H145.234ZM145.55 86.529C145.132 86.529 144.751 86.6097 144.499 86.852L144.936 87.3078C145.01 87.2368 145.185 87.1608 145.55 87.1608V86.529ZM144.499 86.8518C144.251 87.0898 144.167 87.447 144.167 87.834H144.798C144.798 87.5158 144.871 87.3703 144.936 87.308L144.499 86.8518ZM144.167 87.834V88.2159H144.798V87.834H144.167ZM144.483 88.5318H145.609V87.9H144.483V88.5318ZM145.293 88.2159V88.9503H145.925V88.2159H145.293ZM150.15 89.205H149.834V90.389L150.424 89.3623L150.15 89.205ZM150.933 88.4411L151.093 88.7138L151.094 88.7129L150.933 88.4411ZM153.45 88.4705L153.289 88.7422L153.291 88.7434L153.45 88.4705ZM154.37 89.44L154.092 89.5882L154.092 89.59L154.37 89.44ZM154.37 92.3289L154.65 92.4753L154.65 92.4753L154.37 92.3289ZM153.45 93.318L153.287 93.0471L153.285 93.0483L153.45 93.318ZM150.943 93.367L150.78 93.6375L150.786 93.6409L150.943 93.367ZM150.15 92.5933L150.421 92.4316L149.834 91.4458V92.5933H150.15ZM150.15 96.1286V96.4445H150.466V96.1286H150.15ZM149.259 96.1286H148.943V96.4445H149.259V96.1286ZM149.259 88.2159V87.9H148.943V88.2159H149.259ZM150.15 88.2159H150.466V87.9H150.15V88.2159ZM153.548 89.8219L153.825 89.6711L153.825 89.6711L153.548 89.8219ZM152.882 89.1364L152.725 89.4107L152.728 89.4123L152.882 89.1364ZM151.06 89.1462L151.217 89.4205L151.219 89.4193L151.06 89.1462ZM150.395 89.8415L150.118 89.6886L150.117 89.6907L150.395 89.8415ZM150.395 91.9568L150.116 92.1052L150.12 92.1122L150.395 91.9568ZM151.06 92.6521L150.899 92.9236L150.907 92.9279L151.06 92.6521ZM152.882 92.6521L153.039 92.9264L153.041 92.9252L152.882 92.6521ZM153.548 91.9568L153.825 92.1076L153.827 92.1051L153.548 91.9568ZM150.424 89.3623C150.569 89.1093 150.788 88.8921 151.093 88.7138L150.774 88.1684C150.387 88.3949 150.083 88.6869 149.876 89.0476L150.424 89.3623ZM151.094 88.7129C151.392 88.5365 151.743 88.4436 152.157 88.4436V87.8118C151.645 87.8118 151.18 87.9279 150.772 88.1693L151.094 88.7129ZM152.157 88.4436C152.581 88.4436 152.956 88.5445 153.289 88.7422L153.611 88.1988C153.174 87.9395 152.687 87.8118 152.157 87.8118V88.4436ZM153.291 88.7434C153.629 88.9409 153.896 89.2199 154.092 89.5882L154.649 89.2918C154.401 88.8244 154.054 88.457 153.609 88.1976L153.291 88.7434ZM154.092 89.59C154.286 89.9478 154.388 90.3744 154.388 90.8796H155.019C155.019 90.2879 154.899 89.7548 154.648 89.29L154.092 89.59ZM154.388 90.8796C154.388 91.3772 154.286 91.809 154.091 92.1825L154.65 92.4753C154.899 92.0001 155.019 91.4656 155.019 90.8796H154.388ZM154.091 92.1825C153.894 92.558 153.627 92.8435 153.287 93.0471L153.612 93.5889C154.056 93.3225 154.403 92.9486 154.65 92.4753L154.091 92.1825ZM153.285 93.0483C152.953 93.2514 152.579 93.3546 152.157 93.3546V93.9864C152.689 93.9864 153.177 93.8546 153.614 93.5877L153.285 93.0483ZM152.157 93.3546C151.748 93.3546 151.399 93.2646 151.1 93.093L150.786 93.6409C151.192 93.8741 151.652 93.9864 152.157 93.9864V93.3546ZM151.106 93.0965C150.799 92.9109 150.574 92.6883 150.421 92.4316L149.878 92.755C150.091 93.112 150.395 93.4052 150.78 93.6374L151.106 93.0965ZM149.834 92.5933V96.1286H150.466V92.5933H149.834ZM150.15 95.8127H149.259V96.4445H150.15V95.8127ZM149.574 96.1286V88.2159H148.943V96.1286H149.574ZM149.259 88.5318H150.15V87.9H149.259V88.5318ZM149.834 88.2159V89.205H150.466V88.2159H149.834ZM154.109 90.8796C154.109 90.4318 154.018 90.0255 153.825 89.6711L153.27 89.9728C153.404 90.2189 153.477 90.5178 153.477 90.8796H154.109ZM153.825 89.6711C153.636 89.3217 153.372 89.0483 153.036 88.8606L152.728 89.4123C152.953 89.5379 153.134 89.7215 153.27 89.9728L153.825 89.6711ZM153.039 88.8621C152.714 88.6767 152.356 88.5855 151.971 88.5855V89.2173C152.252 89.2173 152.501 89.2828 152.725 89.4107L153.039 88.8621ZM151.971 88.5855C151.589 88.5855 151.231 88.6817 150.902 88.8731L151.219 89.4193C151.452 89.2843 151.7 89.2173 151.971 89.2173V88.5855ZM150.904 88.8719C150.574 89.0604 150.313 89.3368 150.118 89.6886L150.671 89.9944C150.816 89.7325 150.999 89.5454 151.217 89.4205L150.904 88.8719ZM150.117 89.6907C149.925 90.0444 149.834 90.4472 149.834 90.8893H150.466C150.466 90.535 150.538 90.2392 150.672 89.9923L150.117 89.6907ZM149.834 90.8893C149.834 91.3373 149.924 91.7456 150.116 92.1051L150.673 91.8084C150.538 91.5542 150.466 91.2509 150.466 90.8893H149.834ZM150.12 92.1122C150.314 92.4564 150.574 92.7299 150.899 92.9235L151.222 92.3806C150.999 92.2478 150.815 92.0578 150.67 91.8013L150.12 92.1122ZM150.907 92.9279C151.235 93.1113 151.592 93.203 151.971 93.203V92.5712C151.698 92.5712 151.447 92.5062 151.214 92.3762L150.907 92.9279ZM151.971 93.203C152.356 93.203 152.714 93.1118 153.039 92.9263L152.725 92.3778C152.501 92.5057 152.252 92.5712 151.971 92.5712V93.203ZM153.041 92.9252C153.374 92.7313 153.636 92.456 153.825 92.1076L153.27 91.8059C153.133 92.0582 152.951 92.2464 152.723 92.379L153.041 92.9252ZM153.827 92.1051C154.018 91.7449 154.109 91.3331 154.109 90.8796H153.477C153.477 91.2486 153.404 91.5549 153.269 91.8084L153.827 92.1051ZM155.906 87.168L156.129 86.9447L156.129 86.9447L155.906 87.168ZM155.906 86.3063L156.129 86.5296L156.129 86.5296L155.906 86.3063ZM156.748 86.3063L156.518 86.5233L156.525 86.5296L156.748 86.3063ZM156.748 87.168L156.525 86.9446L156.518 86.9511L156.748 87.168ZM156.768 88.2159H157.084V87.9H156.768V88.2159ZM156.768 93.5824V93.8983H157.084V93.5824H156.768ZM155.876 93.5824H155.561V93.8983H155.876V93.5824ZM155.876 88.2159V87.9H155.561V88.2159H155.876ZM156.337 87.0284C156.249 87.0284 156.186 87.0015 156.129 86.9447L155.682 87.3914C155.861 87.5696 156.085 87.6602 156.337 87.6602V87.0284ZM156.129 86.9447C156.072 86.8878 156.045 86.8251 156.045 86.7371H155.414C155.414 86.9887 155.504 87.2132 155.682 87.3914L156.129 86.9447ZM156.045 86.7371C156.045 86.6492 156.072 86.5865 156.129 86.5296L155.682 86.0829C155.504 86.261 155.414 86.4856 155.414 86.7371H156.045ZM156.129 86.5296C156.186 86.4728 156.249 86.4459 156.337 86.4459V85.8141C156.085 85.8141 155.861 85.9047 155.682 86.0829L156.129 86.5296ZM156.337 86.4459C156.414 86.4459 156.468 86.4695 156.518 86.5232L156.978 86.0894C156.806 85.908 156.586 85.8141 156.337 85.8141V86.4459ZM156.525 86.5296C156.582 86.5865 156.608 86.6492 156.608 86.7371H157.24C157.24 86.4856 157.15 86.261 156.971 86.0829L156.525 86.5296ZM156.608 86.7371C156.608 86.8251 156.582 86.8878 156.525 86.9447L156.971 87.3914C157.15 87.2132 157.24 86.9887 157.24 86.7371H156.608ZM156.518 86.9511C156.468 87.0048 156.414 87.0284 156.337 87.0284V87.6602C156.586 87.6602 156.806 87.5663 156.978 87.3849L156.518 86.9511ZM156.452 88.2159V93.5824H157.084V88.2159H156.452ZM156.768 93.2665H155.876V93.8983H156.768V93.2665ZM156.192 93.5824V88.2159H155.561V93.5824H156.192ZM155.876 88.5318H156.768V87.9H155.876V88.5318ZM161.087 93.5824L160.821 93.7522L160.914 93.8983H161.087V93.5824ZM159.814 91.5846L160.081 91.4149L159.809 90.9886L159.545 91.4196L159.814 91.5846ZM158.59 93.5824V93.8983H158.767L158.859 93.7474L158.59 93.5824ZM157.66 93.5824L157.395 93.4101L157.077 93.8983H157.66V93.5824ZM159.393 90.9187L159.658 91.091L159.769 90.92L159.659 90.7482L159.393 90.9187ZM157.66 88.2159V87.9H157.082L157.394 88.3864L157.66 88.2159ZM158.668 88.2159L158.934 88.0455L158.841 87.9H158.668V88.2159ZM159.941 90.2038L159.675 90.3742L159.948 90.7995L160.211 90.3685L159.941 90.2038ZM161.156 88.2159V87.9H160.979L160.886 88.0512L161.156 88.2159ZM162.086 88.2159L162.351 88.3879L162.668 87.9H162.086V88.2159ZM160.363 90.8698L160.098 90.6977L159.987 90.8684L160.096 91.0399L160.363 90.8698ZM162.096 93.5824V93.8983H162.673L162.362 93.4123L162.096 93.5824ZM161.354 93.4126L160.081 91.4149L159.548 91.7544L160.821 93.7522L161.354 93.4126ZM159.545 91.4196L158.321 93.4174L158.859 93.7474L160.083 91.7497L159.545 91.4196ZM158.59 93.2665H157.66V93.8983H158.59V93.2665ZM157.924 93.7547L159.658 91.091L159.128 90.7464L157.395 93.4101L157.924 93.7547ZM159.659 90.7482L157.926 88.0453L157.394 88.3864L159.127 91.0893L159.659 90.7482ZM157.66 88.5318H158.668V87.9H157.66V88.5318ZM158.402 88.3862L159.675 90.3742L160.207 90.0335L158.934 88.0455L158.402 88.3862ZM160.211 90.3685L161.425 88.3805L160.886 88.0512L159.672 90.0392L160.211 90.3685ZM161.156 88.5318H162.086V87.9H161.156V88.5318ZM161.821 88.0438L160.098 90.6977L160.627 91.0418L162.351 88.3879L161.821 88.0438ZM160.096 91.0399L161.83 93.7525L162.362 93.4123L160.629 90.6997L160.096 91.0399ZM162.096 93.2665H161.087V93.8983H162.096V93.2665ZM167.84 91.2321V91.548H168.124L168.154 91.2646L167.84 91.2321ZM163.55 91.2321V90.9162H163.214L163.235 91.2516L163.55 91.2321ZM164.089 92.4758L163.875 92.7083L163.88 92.7127L164.089 92.4758ZM166.253 92.6521L166.433 92.9118L166.434 92.9109L166.253 92.6521ZM166.802 91.9274V91.6115H166.577L166.503 91.8236L166.802 91.9274ZM167.761 91.9274L168.066 92.0121L168.177 91.6115H167.761V91.9274ZM166.899 93.1907L167.088 93.4443L167.09 93.4425L166.899 93.1907ZM163.922 93.3278L163.765 93.6018L163.767 93.6029L163.922 93.3278ZM162.982 92.3583L162.704 92.5081L162.705 92.5099L162.982 92.3583ZM162.972 89.4302L163.251 89.5784L163.251 89.5784L162.972 89.4302ZM163.903 88.4705L164.057 88.7464L164.058 88.7456L163.903 88.4705ZM166.645 88.4607L166.489 88.7355L166.489 88.7355L166.645 88.4607ZM167.546 89.3812L167.267 89.5299L167.27 89.5354L167.546 89.3812ZM166.948 90.5074V90.8233H167.264V90.5074H166.948ZM166.723 89.6359L166.453 89.7994L166.455 89.8026L166.723 89.6359ZM166.106 89.0777L165.962 89.3589L165.971 89.363L166.106 89.0777ZM164.099 89.3127L163.888 89.0776L163.885 89.0798L164.099 89.3127ZM163.56 90.5074L163.245 90.4792L163.215 90.8233H163.56V90.5074ZM167.553 90.6935C167.553 90.8512 167.544 91.0198 167.525 91.1996L168.154 91.2646C168.174 91.0657 168.185 90.8753 168.185 90.6935H167.553ZM167.84 90.9162H163.55V91.548H167.84V90.9162ZM163.235 91.2516C163.272 91.8449 163.477 92.3422 163.875 92.7083L164.303 92.2433C164.048 92.0087 163.894 91.6769 163.866 91.2126L163.235 91.2516ZM163.88 92.7127C164.274 93.0605 164.751 93.2324 165.293 93.2324V92.6006C164.895 92.6006 164.57 92.4786 164.298 92.2389L163.88 92.7127ZM165.293 93.2324C165.727 93.2324 166.114 93.1327 166.433 92.9118L166.073 92.3923C165.883 92.524 165.63 92.6006 165.293 92.6006V93.2324ZM166.434 92.9109C166.75 92.6901 166.974 92.3944 167.1 92.0312L166.503 91.8236C166.421 92.0611 166.279 92.2484 166.072 92.3933L166.434 92.9109ZM166.802 92.2433H167.761V91.6115H166.802V92.2433ZM167.457 91.8426C167.332 92.2911 167.085 92.6538 166.709 92.9389L167.09 93.4425C167.576 93.0747 167.903 92.5952 168.066 92.0121L167.457 91.8426ZM166.711 92.937C166.345 93.2092 165.879 93.3546 165.293 93.3546V93.9864C165.988 93.9864 166.593 93.812 167.088 93.4443L166.711 92.937ZM165.293 93.3546C164.833 93.3546 164.431 93.2519 164.078 93.0527L163.767 93.6029C164.224 93.8606 164.735 93.9864 165.293 93.9864V93.3546ZM164.08 93.0538C163.734 92.8554 163.461 92.5755 163.259 92.2067L162.705 92.5099C162.96 92.9768 163.315 93.3432 163.765 93.6018L164.08 93.0538ZM163.26 92.2085C163.06 91.8367 162.955 91.4 162.955 90.8893H162.324C162.324 91.4886 162.447 92.0311 162.704 92.5081L163.26 92.2085ZM162.955 90.8893C162.955 90.3771 163.058 89.9433 163.251 89.5784L162.694 89.282C162.443 89.7528 162.324 90.2917 162.324 90.8893H162.955ZM163.251 89.5784C163.446 89.2122 163.714 88.9376 164.057 88.7464L163.749 88.1946C163.296 88.4473 162.943 88.8126 162.694 89.282L163.251 89.5784ZM164.058 88.7456C164.41 88.547 164.819 88.4436 165.293 88.4436V87.8118C164.724 87.8118 164.205 87.937 163.748 88.1954L164.058 88.7456ZM165.293 88.4436C165.755 88.4436 166.151 88.5439 166.489 88.7355L166.801 88.1859C166.355 87.9336 165.85 87.8118 165.293 87.8118V88.4436ZM166.489 88.7355C166.829 88.9284 167.087 89.1918 167.267 89.5299L167.825 89.2326C167.587 88.7872 167.244 88.4369 166.801 88.1859L166.489 88.7355ZM167.27 89.5354C167.456 89.8685 167.553 90.2518 167.553 90.6935H168.185C168.185 90.1559 168.066 89.6643 167.821 89.227L167.27 89.5354ZM167.264 90.5074C167.264 90.1205 167.178 89.7697 166.991 89.4691L166.455 89.8026C166.568 89.9852 166.633 90.2154 166.633 90.5074H167.264ZM166.993 89.4723C166.811 89.1715 166.559 88.943 166.242 88.7923L165.971 89.363C166.176 89.4604 166.335 89.6041 166.453 89.7994L166.993 89.4723ZM166.25 88.7966C165.947 88.641 165.613 88.5659 165.254 88.5659V89.1977C165.522 89.1977 165.756 89.2532 165.962 89.3587L166.25 88.7966ZM165.254 88.5659C164.73 88.5659 164.268 88.7357 163.888 89.0776L164.31 89.5477C164.569 89.3152 164.878 89.1977 165.254 89.1977V88.5659ZM163.885 89.0798C163.502 89.4307 163.297 89.9083 163.245 90.4792L163.875 90.5357C163.915 90.0881 164.068 89.7692 164.312 89.5456L163.885 89.0798ZM163.56 90.8233H166.948V90.1915H163.56V90.8233ZM169.936 86.3356H170.252V86.0197H169.936V86.3356ZM169.936 93.5824V93.8983H170.252V93.5824H169.936ZM169.045 93.5824H168.729V93.8983H169.045V93.5824ZM169.045 86.3356V86.0197H168.729V86.3356H169.045ZM169.621 86.3356V93.5824H170.252V86.3356H169.621ZM169.936 93.2665H169.045V93.8983H169.936V93.2665ZM169.361 93.5824V86.3356H168.729V93.5824H169.361ZM169.045 86.6515H169.936V86.0197H169.045V86.6515Z" fill="#989898" fill-opacity="0.81" mask="url(#path-1-inside-1_63_954)"/>
<path d="M174.497 87.7229L171.757 89.4421L174.497 91.0482" stroke="#F56F0F" stroke-width="0.664157"/>
<path d="M174.497 87.7229L171.757 89.4421L174.497 91.0482" stroke="#F07F21" stroke-opacity="0.97" stroke-width="0.664157"/>
<path d="M174.223 92.7583L176.866 91.0458L174.223 89.4459" stroke="#F56F0F" stroke-width="0.664157"/>
<path d="M174.223 92.7583L176.866 91.0458L174.223 89.4459" stroke="#F07F21" stroke-opacity="0.97" stroke-width="0.664157"/>
<path d="M151.477 95.6984C151.382 95.6984 151.299 95.6799 151.23 95.6429C151.16 95.6059 151.106 95.5492 151.069 95.4728C151.031 95.3963 151.012 95.2993 151.012 95.1816C151.012 95.0591 151.033 94.959 151.074 94.8814C151.115 94.8038 151.172 94.7465 151.245 94.7095C151.318 94.6725 151.402 94.654 151.497 94.654C151.557 94.654 151.611 94.66 151.66 94.6722C151.709 94.6837 151.751 94.6979 151.785 94.7149L151.721 94.886C151.684 94.8708 151.646 94.8581 151.607 94.8477C151.568 94.8374 151.531 94.8323 151.495 94.8323C151.436 94.8323 151.387 94.8453 151.348 94.8714C151.309 94.8975 151.28 94.9363 151.261 94.9878C151.242 95.0394 151.232 95.1034 151.232 95.1798C151.232 95.2538 151.242 95.3163 151.261 95.3672C151.281 95.4176 151.31 95.4558 151.348 95.4818C151.386 95.5073 151.433 95.5201 151.489 95.5201C151.544 95.5201 151.593 95.5134 151.637 95.5C151.681 95.4867 151.722 95.4694 151.761 95.4482V95.6338C151.723 95.6556 151.682 95.6717 151.638 95.682C151.594 95.6929 151.541 95.6984 151.477 95.6984ZM152.212 95.6802H151.997V94.2646H152.212V95.6802ZM153.409 95.1743C153.409 95.258 153.398 95.3323 153.377 95.3972C153.355 95.4621 153.323 95.517 153.281 95.5619C153.239 95.6062 153.189 95.6401 153.13 95.6638C153.071 95.6868 153.005 95.6984 152.931 95.6984C152.862 95.6984 152.798 95.6868 152.741 95.6638C152.683 95.6401 152.633 95.6062 152.591 95.5619C152.549 95.517 152.516 95.4621 152.493 95.3972C152.47 95.3323 152.459 95.258 152.459 95.1743C152.459 95.0634 152.478 94.9693 152.516 94.8923C152.555 94.8147 152.61 94.7556 152.682 94.7149C152.753 94.6743 152.838 94.654 152.937 94.654C153.03 94.654 153.112 94.6743 153.183 94.7149C153.254 94.7556 153.309 94.8147 153.349 94.8923C153.389 94.97 153.409 95.064 153.409 95.1743ZM152.679 95.1743C152.679 95.2477 152.688 95.3105 152.705 95.3627C152.723 95.4148 152.751 95.4549 152.789 95.4828C152.827 95.5101 152.875 95.5237 152.934 95.5237C152.994 95.5237 153.042 95.5101 153.08 95.4828C153.118 95.4549 153.145 95.4148 153.163 95.3627C153.18 95.3105 153.189 95.2477 153.189 95.1743C153.189 95.101 153.18 95.0388 153.163 94.9878C153.145 94.9363 153.118 94.8972 153.08 94.8705C153.042 94.8432 152.994 94.8295 152.934 94.8295C152.845 94.8295 152.78 94.8593 152.74 94.9187C152.699 94.9781 152.679 95.0634 152.679 95.1743ZM154.533 94.6731V95.6802H154.365L154.336 95.5446H154.324C154.302 95.5792 154.275 95.608 154.243 95.631C154.21 95.6535 154.174 95.6702 154.134 95.6811C154.094 95.6926 154.051 95.6984 154.007 95.6984C153.931 95.6984 153.866 95.6856 153.812 95.6602C153.759 95.6341 153.718 95.5941 153.69 95.5401C153.661 95.4861 153.647 95.4163 153.647 95.3308V94.6731H153.862V95.2908C153.862 95.369 153.877 95.4276 153.909 95.4664C153.941 95.5052 153.991 95.5246 154.058 95.5246C154.123 95.5246 154.174 95.5113 154.213 95.4846C154.251 95.4579 154.278 95.4185 154.294 95.3663C154.31 95.3141 154.318 95.2502 154.318 95.1743V94.6731H154.533ZM155.178 95.6984C155.058 95.6984 154.961 95.6547 154.889 95.5674C154.816 95.4794 154.78 95.3499 154.78 95.1789C154.78 95.006 154.817 94.8753 154.89 94.7868C154.964 94.6982 155.062 94.654 155.183 94.654C155.233 94.654 155.278 94.6609 155.316 94.6749C155.354 94.6882 155.387 94.7064 155.414 94.7295C155.442 94.7525 155.466 94.7783 155.485 94.8068H155.495C155.492 94.788 155.489 94.761 155.485 94.7258C155.481 94.6901 155.479 94.657 155.479 94.6267V94.2646H155.694V95.6802H155.526L155.488 95.5428H155.479C155.461 95.5719 155.438 95.5983 155.41 95.622C155.383 95.645 155.35 95.6635 155.312 95.6774C155.274 95.6914 155.23 95.6984 155.178 95.6984ZM155.238 95.5246C155.33 95.5246 155.394 95.4982 155.432 95.4455C155.469 95.3927 155.489 95.3135 155.49 95.208V95.1798C155.49 95.067 155.472 94.9806 155.435 94.9205C155.399 94.8599 155.333 94.8295 155.236 94.8295C155.159 94.8295 155.1 94.8608 155.06 94.9233C155.02 94.9851 155 95.0715 155 95.1825C155 95.2935 155.02 95.3784 155.06 95.4373C155.1 95.4955 155.16 95.5246 155.238 95.5246ZM156.879 94.654C157.007 94.654 157.103 94.6822 157.168 94.7386C157.233 94.795 157.266 94.8829 157.266 95.0024V95.6802H157.114L157.073 95.5373H157.066C157.037 95.5737 157.008 95.6038 156.977 95.6274C156.947 95.6511 156.912 95.6687 156.872 95.6802C156.833 95.6923 156.784 95.6984 156.727 95.6984C156.667 95.6984 156.614 95.6875 156.566 95.6656C156.519 95.6432 156.482 95.6092 156.454 95.5637C156.427 95.5182 156.413 95.4606 156.413 95.3909C156.413 95.2872 156.452 95.2092 156.529 95.1571C156.607 95.1049 156.724 95.0761 156.88 95.0706L157.055 95.0643V95.0115C157.055 94.9418 157.038 94.892 157.006 94.8623C156.974 94.8326 156.928 94.8177 156.869 94.8177C156.819 94.8177 156.77 94.825 156.723 94.8396C156.675 94.8541 156.629 94.872 156.584 94.8932L156.515 94.7422C156.564 94.7161 156.62 94.6949 156.683 94.6785C156.746 94.6622 156.811 94.654 156.879 94.654ZM157.054 95.1989L156.924 95.2035C156.817 95.2071 156.742 95.2253 156.699 95.258C156.656 95.2908 156.634 95.3357 156.634 95.3927C156.634 95.4424 156.649 95.4788 156.679 95.5019C156.709 95.5243 156.748 95.5355 156.796 95.5355C156.87 95.5355 156.932 95.5146 156.98 95.4728C157.029 95.4303 157.054 95.3681 157.054 95.2862V95.1989ZM158.09 94.654C158.204 94.654 158.292 94.6834 158.355 94.7422C158.419 94.8004 158.45 94.8941 158.45 95.0233V95.6802H158.237V95.0634C158.237 94.9851 158.221 94.9266 158.188 94.8878C158.156 94.8484 158.106 94.8286 158.039 94.8286C157.942 94.8286 157.874 94.8587 157.835 94.9187C157.798 94.9788 157.779 95.0658 157.779 95.1798V95.6802H157.565V94.6731H157.732L157.762 94.8095H157.774C157.795 94.7744 157.822 94.7455 157.854 94.7231C157.887 94.7001 157.924 94.6828 157.964 94.6713C158.004 94.6597 158.046 94.654 158.09 94.654ZM159.088 95.6984C158.968 95.6984 158.872 95.6547 158.799 95.5674C158.727 95.4794 158.691 95.3499 158.691 95.1789C158.691 95.006 158.727 94.8753 158.801 94.7868C158.875 94.6982 158.972 94.654 159.093 94.654C159.144 94.654 159.188 94.6609 159.226 94.6749C159.265 94.6882 159.297 94.7064 159.325 94.7295C159.353 94.7525 159.376 94.7783 159.396 94.8068H159.406C159.403 94.788 159.399 94.761 159.395 94.7258C159.391 94.6901 159.389 94.657 159.389 94.6267V94.2646H159.604V95.6802H159.437L159.398 95.5428H159.389C159.371 95.5719 159.348 95.5983 159.32 95.622C159.293 95.645 159.26 95.6635 159.222 95.6774C159.184 95.6914 159.14 95.6984 159.088 95.6984ZM159.148 95.5246C159.24 95.5246 159.304 95.4982 159.342 95.4455C159.38 95.3927 159.399 95.3135 159.4 95.208V95.1798C159.4 95.067 159.382 94.9806 159.346 94.9205C159.309 94.8599 159.243 94.8295 159.146 94.8295C159.069 94.8295 159.01 94.8608 158.97 94.9233C158.93 94.9851 158.91 95.0715 158.91 95.1825C158.91 95.2935 158.93 95.3784 158.97 95.4373C159.01 95.4955 159.07 95.5246 159.148 95.5246ZM161.218 95.6793L161.09 95.2107C161.084 95.1877 161.077 95.1598 161.069 95.127C161.06 95.0943 161.052 95.0606 161.043 95.0261C161.035 94.9909 161.027 94.9584 161.02 94.9287C161.013 94.899 161.008 94.8759 161.004 94.8596H160.997C160.994 94.8759 160.989 94.899 160.982 94.9287C160.976 94.9584 160.968 94.9909 160.959 95.0261C160.951 95.0612 160.943 95.0955 160.934 95.1289C160.926 95.1622 160.919 95.1907 160.912 95.2144L160.778 95.6793H160.544L160.262 94.6722H160.478L160.609 95.1725C160.618 95.2065 160.626 95.2432 160.634 95.2826C160.642 95.322 160.65 95.3596 160.656 95.3954C160.662 95.4312 160.666 95.4606 160.669 95.4837H160.677C160.679 95.4673 160.682 95.4467 160.687 95.4218C160.691 95.3963 160.696 95.3699 160.701 95.3427C160.707 95.3148 160.712 95.2887 160.717 95.2644C160.723 95.2395 160.728 95.2195 160.733 95.2044L160.888 94.6722H161.121L161.27 95.2044C161.276 95.2274 161.284 95.2565 161.292 95.2917C161.299 95.3263 161.306 95.3612 161.312 95.3963C161.319 95.4309 161.323 95.4597 161.325 95.4828H161.332C161.335 95.4621 161.339 95.4342 161.345 95.3991C161.352 95.3633 161.359 95.3254 161.368 95.2853C161.376 95.2447 161.385 95.2071 161.394 95.1725L161.528 94.6722H161.741L161.457 95.6793H161.218ZM162.315 94.654C162.405 94.654 162.482 94.6725 162.546 94.7095C162.61 94.7465 162.66 94.7989 162.694 94.8668C162.729 94.9348 162.746 95.0161 162.746 95.1107V95.2253H162.074C162.076 95.3229 162.102 95.3981 162.152 95.4509C162.203 95.5037 162.273 95.5301 162.363 95.5301C162.428 95.5301 162.485 95.524 162.536 95.5119C162.588 95.4991 162.641 95.4806 162.695 95.4564V95.6301C162.645 95.6538 162.594 95.6711 162.542 95.682C162.489 95.6929 162.427 95.6984 162.354 95.6984C162.255 95.6984 162.168 95.6793 162.093 95.6411C162.018 95.6022 161.96 95.5446 161.917 95.4682C161.876 95.3918 161.855 95.2969 161.855 95.1834C161.855 95.0706 161.874 94.9748 161.912 94.896C161.95 94.8171 162.004 94.7571 162.073 94.7158C162.142 94.6746 162.223 94.654 162.315 94.654ZM162.315 94.815C162.248 94.815 162.193 94.8368 162.151 94.8805C162.11 94.9242 162.086 94.9882 162.078 95.0725H162.537C162.536 95.0221 162.528 94.9775 162.512 94.9387C162.496 94.8999 162.472 94.8696 162.439 94.8477C162.407 94.8259 162.365 94.815 162.315 94.815ZM163.201 94.2646V94.6057C163.201 94.6452 163.2 94.684 163.197 94.7222C163.196 94.7598 163.194 94.7892 163.192 94.8104H163.201C163.228 94.7668 163.266 94.7301 163.315 94.7004C163.364 94.67 163.427 94.6549 163.503 94.6549C163.623 94.6549 163.719 94.6988 163.792 94.7868C163.864 94.8741 163.901 95.0036 163.901 95.1753C163.901 95.2893 163.884 95.3851 163.851 95.4627C163.817 95.5404 163.77 95.5992 163.71 95.6392C163.65 95.6787 163.579 95.6984 163.498 95.6984C163.421 95.6984 163.359 95.6844 163.312 95.6565C163.265 95.628 163.229 95.595 163.202 95.5574H163.187L163.147 95.6802H162.987V94.2646H163.201ZM163.447 94.8286C163.386 94.8286 163.338 94.8408 163.302 94.865C163.267 94.8893 163.241 94.9257 163.226 94.9742C163.21 95.0221 163.202 95.0831 163.201 95.1571V95.1762C163.201 95.2884 163.219 95.3742 163.254 95.4336C163.29 95.4931 163.355 95.5228 163.449 95.5228C163.523 95.5228 163.581 95.4928 163.621 95.4327C163.661 95.3721 163.681 95.2853 163.681 95.1725C163.681 95.0585 163.661 94.9727 163.621 94.9151C163.581 94.8574 163.523 94.8286 163.447 94.8286ZM164.971 95.6984C164.851 95.6984 164.754 95.6547 164.681 95.5674C164.609 95.4794 164.573 95.3499 164.573 95.1789C164.573 95.006 164.61 94.8753 164.683 94.7868C164.757 94.6982 164.854 94.654 164.975 94.654C165.026 94.654 165.071 94.6609 165.109 94.6749C165.147 94.6882 165.18 94.7064 165.207 94.7295C165.235 94.7525 165.259 94.7783 165.278 94.8068H165.288C165.285 94.788 165.281 94.761 165.277 94.7258C165.274 94.6901 165.272 94.657 165.272 94.6267V94.2646H165.486V95.6802H165.319L165.281 95.5428H165.272C165.254 95.5719 165.231 95.5983 165.203 95.622C165.175 95.645 165.143 95.6635 165.104 95.6774C165.067 95.6914 165.022 95.6984 164.971 95.6984ZM165.031 95.5246C165.122 95.5246 165.187 95.4982 165.224 95.4455C165.262 95.3927 165.281 95.3135 165.283 95.208V95.1798C165.283 95.067 165.264 94.9806 165.228 94.9205C165.192 94.8599 165.125 94.8295 165.029 94.8295C164.952 94.8295 164.893 94.8608 164.852 94.9233C164.812 94.9851 164.792 95.0715 164.792 95.1825C164.792 95.2935 164.812 95.3784 164.852 95.4373C164.893 95.4955 164.952 95.5246 165.031 95.5246ZM166.194 94.654C166.284 94.654 166.361 94.6725 166.425 94.7095C166.49 94.7465 166.539 94.7989 166.574 94.8668C166.608 94.9348 166.625 95.0161 166.625 95.1107V95.2253H165.953C165.956 95.3229 165.982 95.3981 166.031 95.4509C166.082 95.5037 166.152 95.5301 166.242 95.5301C166.307 95.5301 166.364 95.524 166.415 95.5119C166.467 95.4991 166.52 95.4806 166.575 95.4564V95.6301C166.524 95.6538 166.473 95.6711 166.421 95.682C166.369 95.6929 166.306 95.6984 166.233 95.6984C166.135 95.6984 166.047 95.6793 165.972 95.6411C165.898 95.6022 165.839 95.5446 165.797 95.4682C165.755 95.3918 165.734 95.2969 165.734 95.1834C165.734 95.0706 165.753 94.9748 165.791 94.896C165.829 94.8171 165.883 94.7571 165.952 94.7158C166.021 94.6746 166.102 94.654 166.194 94.654ZM166.194 94.815C166.127 94.815 166.072 94.8368 166.03 94.8805C165.989 94.9242 165.965 94.9882 165.958 95.0725H166.416C166.416 95.0221 166.407 94.9775 166.391 94.9387C166.375 94.8999 166.351 94.8696 166.318 94.8477C166.286 94.8259 166.245 94.815 166.194 94.815ZM167.097 95.6802L166.714 94.6731H166.94L167.148 95.2644C167.161 95.302 167.173 95.3427 167.184 95.3863C167.195 95.43 167.203 95.4667 167.207 95.4964H167.214C167.218 95.4655 167.227 95.4285 167.239 95.3854C167.251 95.3417 167.263 95.3014 167.276 95.2644L167.483 94.6731H167.709L167.326 95.6802H167.097ZM168.263 94.654C168.353 94.654 168.43 94.6725 168.494 94.7095C168.558 94.7465 168.608 94.7989 168.642 94.8668C168.677 94.9348 168.694 95.0161 168.694 95.1107V95.2253H168.022C168.024 95.3229 168.05 95.3981 168.1 95.4509C168.151 95.5037 168.221 95.5301 168.311 95.5301C168.376 95.5301 168.433 95.524 168.484 95.5119C168.536 95.4991 168.589 95.4806 168.643 95.4564V95.6301C168.593 95.6538 168.542 95.6711 168.49 95.682C168.437 95.6929 168.375 95.6984 168.302 95.6984C168.203 95.6984 168.116 95.6793 168.041 95.6411C167.966 95.6022 167.908 95.5446 167.865 95.4682C167.824 95.3918 167.803 95.2969 167.803 95.1834C167.803 95.0706 167.822 94.9748 167.86 94.896C167.898 94.8171 167.952 94.7571 168.021 94.7158C168.09 94.6746 168.171 94.654 168.263 94.654ZM168.263 94.815C168.196 94.815 168.141 94.8368 168.099 94.8805C168.058 94.9242 168.034 94.9882 168.027 95.0725H168.485C168.484 95.0221 168.476 94.9775 168.46 94.9387C168.444 94.8999 168.42 94.8696 168.387 94.8477C168.355 94.8259 168.313 94.815 168.263 94.815ZM169.15 95.6802H168.935V94.2646H169.15V95.6802ZM170.347 95.1743C170.347 95.258 170.336 95.3323 170.315 95.3972C170.293 95.4621 170.261 95.517 170.219 95.5619C170.177 95.6062 170.127 95.6401 170.068 95.6638C170.009 95.6868 169.943 95.6984 169.869 95.6984C169.8 95.6984 169.736 95.6868 169.679 95.6638C169.621 95.6401 169.571 95.6062 169.529 95.5619C169.487 95.517 169.454 95.4621 169.431 95.3972C169.408 95.3323 169.397 95.258 169.397 95.1743C169.397 95.0634 169.416 94.9693 169.454 94.8923C169.493 94.8147 169.548 94.7556 169.62 94.7149C169.691 94.6743 169.776 94.654 169.875 94.654C169.968 94.654 170.05 94.6743 170.121 94.7149C170.192 94.7556 170.247 94.8147 170.287 94.8923C170.327 94.97 170.347 95.064 170.347 95.1743ZM169.617 95.1743C169.617 95.2477 169.626 95.3105 169.643 95.3627C169.661 95.4148 169.689 95.4549 169.727 95.4828C169.764 95.5101 169.813 95.5237 169.872 95.5237C169.932 95.5237 169.98 95.5101 170.018 95.4828C170.056 95.4549 170.083 95.4148 170.101 95.3627C170.118 95.3105 170.127 95.2477 170.127 95.1743C170.127 95.101 170.118 95.0388 170.101 94.9878C170.083 94.9363 170.056 94.8972 170.018 94.8705C169.98 94.8432 169.932 94.8295 169.872 94.8295C169.783 94.8295 169.718 94.8593 169.678 94.9187C169.637 94.9781 169.617 95.0634 169.617 95.1743ZM171.11 94.654C171.229 94.654 171.325 94.6976 171.397 94.785C171.47 94.8723 171.506 95.0021 171.506 95.1743C171.506 95.2884 171.489 95.3845 171.455 95.4627C171.422 95.5404 171.375 95.5992 171.314 95.6392C171.254 95.6787 171.184 95.6984 171.104 95.6984C171.053 95.6984 171.009 95.6917 170.971 95.6784C170.934 95.665 170.902 95.6477 170.875 95.6265C170.848 95.6047 170.826 95.581 170.808 95.5555H170.795C170.798 95.5798 170.801 95.6068 170.803 95.6365C170.806 95.6656 170.808 95.6923 170.808 95.7166V96.1269H170.593V94.6731H170.768L170.798 94.8123H170.808C170.826 94.7838 170.849 94.7574 170.876 94.7331C170.903 94.7089 170.936 94.6897 170.974 94.6758C171.013 94.6612 171.058 94.654 171.11 94.654ZM171.052 94.8286C170.994 94.8286 170.946 94.8405 170.91 94.8641C170.875 94.8872 170.849 94.922 170.833 94.9687C170.817 95.0154 170.809 95.074 170.808 95.1443V95.1743C170.808 95.2489 170.815 95.3123 170.83 95.3645C170.846 95.416 170.872 95.4555 170.908 95.4828C170.944 95.5094 170.993 95.5228 171.055 95.5228C171.107 95.5228 171.15 95.5085 171.184 95.48C171.219 95.4515 171.245 95.4109 171.262 95.3581C171.279 95.3054 171.287 95.2432 171.287 95.1716C171.287 95.0631 171.268 94.9788 171.229 94.9187C171.191 94.8587 171.132 94.8286 171.052 94.8286ZM172.892 94.654C173.005 94.654 173.09 94.6831 173.147 94.7413C173.204 94.7995 173.233 94.8929 173.233 95.0215V95.6802H173.019V95.0597C173.019 94.9833 173.004 94.9257 172.975 94.8869C172.945 94.848 172.9 94.8286 172.839 94.8286C172.754 94.8286 172.693 94.8559 172.655 94.9105C172.618 94.9645 172.6 95.043 172.6 95.1461V95.6802H172.386V95.0597C172.386 95.0088 172.379 94.9663 172.366 94.9324C172.353 94.8978 172.334 94.872 172.307 94.855C172.28 94.8374 172.247 94.8286 172.206 94.8286C172.147 94.8286 172.1 94.842 172.065 94.8687C172.03 94.8954 172.006 94.9348 171.99 94.9869C171.975 95.0385 171.968 95.1019 171.968 95.1771V95.6802H171.754V94.6731H171.92L171.95 94.8086H171.962C171.983 94.7734 172.008 94.7446 172.039 94.7222C172.069 94.6992 172.104 94.6822 172.141 94.6713C172.179 94.6597 172.218 94.654 172.259 94.654C172.334 94.654 172.397 94.6673 172.449 94.694C172.5 94.7201 172.539 94.7601 172.564 94.8141H172.581C172.612 94.7595 172.656 94.7192 172.713 94.6931C172.769 94.667 172.829 94.654 172.892 94.654ZM173.933 94.654C174.022 94.654 174.099 94.6725 174.164 94.7095C174.228 94.7465 174.277 94.7989 174.312 94.8668C174.347 94.9348 174.364 95.0161 174.364 95.1107V95.2253H173.692C173.694 95.3229 173.72 95.3981 173.77 95.4509C173.82 95.5037 173.891 95.5301 173.981 95.5301C174.045 95.5301 174.103 95.524 174.154 95.5119C174.205 95.4991 174.258 95.4806 174.313 95.4564V95.6301C174.263 95.6538 174.211 95.6711 174.159 95.682C174.107 95.6929 174.045 95.6984 173.972 95.6984C173.873 95.6984 173.786 95.6793 173.711 95.6411C173.636 95.6022 173.578 95.5446 173.535 95.4682C173.493 95.3918 173.472 95.2969 173.472 95.1834C173.472 95.0706 173.491 94.9748 173.53 94.896C173.568 94.8171 173.622 94.7571 173.691 94.7158C173.76 94.6746 173.84 94.654 173.933 94.654ZM173.933 94.815C173.865 94.815 173.811 94.8368 173.769 94.8805C173.728 94.9242 173.703 94.9882 173.696 95.0725H174.155C174.154 95.0221 174.146 94.9775 174.129 94.9387C174.113 94.8999 174.089 94.8696 174.056 94.8477C174.024 94.8259 173.983 94.815 173.933 94.815ZM175.13 94.654C175.243 94.654 175.332 94.6834 175.395 94.7422C175.458 94.8004 175.49 94.8941 175.49 95.0233V95.6802H175.276V95.0634C175.276 94.9851 175.26 94.9266 175.228 94.8878C175.196 94.8484 175.146 94.8286 175.079 94.8286C174.981 94.8286 174.913 94.8587 174.875 94.9187C174.838 94.9788 174.819 95.0658 174.819 95.1798V95.6802H174.605V94.6731H174.771L174.801 94.8095H174.813C174.835 94.7744 174.862 94.7455 174.894 94.7231C174.927 94.7001 174.963 94.6828 175.003 94.6713C175.044 94.6597 175.086 94.654 175.13 94.654ZM176.164 95.5255C176.192 95.5255 176.22 95.5231 176.247 95.5182C176.274 95.5128 176.299 95.5064 176.322 95.4991V95.6611C176.298 95.6714 176.267 95.6802 176.23 95.6875C176.192 95.6947 176.153 95.6984 176.112 95.6984C176.055 95.6984 176.004 95.689 175.959 95.6702C175.913 95.6508 175.877 95.6177 175.85 95.571C175.824 95.5243 175.81 95.4597 175.81 95.3772V94.8359H175.673V94.7404L175.82 94.6649L175.89 94.4493H176.025V94.6731H176.314V94.8359H176.025V95.3745C176.025 95.4254 176.038 95.4633 176.063 95.4882C176.089 95.5131 176.122 95.5255 176.164 95.5255Z" fill="white"/>
<path d="M88.4128 63.5101L86.8579 64.0247L71.1368 73.115L70.273 73.458L69.4092 75.0016V75.8592V94.8974C69.6395 95.5263 70.1348 96.784 70.273 96.784C70.4112 96.784 75.283 99.2996 77.7017 100.557H79.2565L80.6386 100.043L82.0206 99.0137L82.7117 97.6416L83.23 96.784V77.2313H80.6386V96.2695C80.4658 96.4982 79.9475 97.0242 79.2565 97.2986L78.3927 97.6416C77.932 97.6988 77.0452 97.7788 77.1834 97.6416C77.3216 97.5044 73.7858 95.4119 72.0006 94.3828V75.8592L73.2099 75.0016L88.4128 66.5974H89.1038L104.998 75.8592V76.3738V94.3828L104.307 94.8974L88.4128 103.816C86.9155 102.901 83.921 101.106 83.921 101.243C83.921 101.381 82.1934 102.444 81.3296 102.959L87.3762 106.389H89.7948L107.071 96.2695L107.762 94.8974V75.0016L106.553 73.458L89.7948 64.0247L88.4128 63.5101Z" fill="#63C42E" stroke="black" stroke-width="0.034303"/>
<path d="M86.2991 80.1841H85.9672V83.1503V83.4799V83.8094H86.2991V84.139V84.4686C86.4098 84.4686 86.6311 84.5345 86.6311 84.7982H86.9631V85.1278H87.5648V85.4573H88.291V85.7869H88.9549V86.1165H90.2828V86.4461H92.9385V86.7756H93.2705H95.2623V87.1052H96.5902V87.4348H97.2541V87.7644H97.5861V88.094H97.9181V89.7418H97.5861V90.0714H97.2541V90.401H96.9222V90.7306H95.9263V91.0602H90.6147V90.7306H89.6188V90.401H88.9549V90.0714H88.6229V89.4123H88.291V88.094H87.959V87.7644H85.3032V90.0714C85.4139 90.0714 85.6352 90.2033 85.6352 90.7306H85.9672V91.0602C86.0778 91.0602 86.2991 91.192 86.2991 91.7193H86.6311V92.0489H86.9631V92.3785H87.627V92.708H88.291V93.0376H88.9549V93.3672H90.2828V93.6968H96.2582V93.3672C96.7009 93.3672 97.5861 93.3013 97.5861 93.0376H98.2501V92.708H98.914V92.3785H99.246V92.0489H99.5779V91.7193H99.9099V91.3897H100.242V91.0602H100.574V90.0714H100.906V89.7418V87.1052H100.574V86.4461H100.242V86.1165V85.7869H99.9099V85.4573H99.246V85.1278C99.246 84.9959 99.0247 85.0728 98.914 85.1278V84.7982H98.582H97.9181V84.4686H96.7562V84.139H94.9304V83.8094H92.2746V83.4799H90.6147V83.1503H89.6188V82.8207H88.9549V81.5024V80.8432H89.2869V80.5137H89.6188V80.1841H90.2828V79.8545H95.5943V80.1841H96.2582V80.5137H96.5902V80.8432H96.9222V81.1728H97.2541V81.832H97.5861V82.1616V82.4911H97.9181V82.8207H100.242V80.8432H99.9099V80.5137V80.1841V79.8545H99.7439H99.5779V79.5249H99.246V79.1954H98.914V78.8658H98.582V78.5362H98.2501V78.2066H97.5861V77.877H96.9222V77.5475H95.9263V77.2179H94.2664V76.8883H91.4447V77.2179H89.9508V77.5475H88.9549V77.877H88.291V78.2066H87.627V78.5362H87.295V78.8658H86.9631V79.1954H86.6311V79.5249H86.2991V80.1841Z" fill="#63C42E"/>
<path d="M154.408 42.7568V47.0447L157.691 48.9313H158.554L161.664 47.0447V42.7568L158.554 40.8701H157.691L154.408 42.7568Z" fill="#72DA2C" stroke="black" stroke-width="0.034303"/>
<path d="M159.072 65.9116L169.611 60.0801V58.7079L151.817 48.417V41.3849L157.345 38.2977H158.727L163.391 41.0419L163.91 41.3849L164.428 41.728V47.0449L164.774 47.731H165.637L165.983 47.3879L176.521 41.3849L176.867 41.0419L176.694 34.5243V34.1813L165.637 27.6637L159.072 23.7189H157.518L146.979 29.7219L139.205 34.5243V55.6207L139.551 56.1352L146.634 60.0801L156.999 65.9116H159.072Z" fill="black" stroke="#FCFDFD" stroke-width="0.583151"/>
<path d="M94.2867 35.5533L93.5957 36.4108V57.1642C93.826 57.3357 94.2867 57.713 94.2867 57.8502C94.2867 57.9874 100.621 61.5664 103.789 63.3387L111.563 67.9696H113.636L123.829 61.9666L131.257 57.5072L131.43 57.1642V35.0387L131.085 7.25329V6.91026C127.457 4.85208 120.235 0.735718 120.373 0.735718H119.337L118.646 1.25026V27.8351V28.1781C118.358 28.121 117.748 27.9723 117.609 27.8351C117.471 27.6979 114.788 26.1771 113.463 25.4339H111.563L94.2867 35.5533Z" fill="black" stroke="#FCFDFD" stroke-width="0.583151"/>
<g filter="url(#filter0_d_63_954)">
<path d="M105.343 42.4896V49.1787L105.689 49.6932L111.39 52.952H112.081L117.955 49.6932V49.1787V42.4896L112.081 38.8878C111.851 38.8306 111.39 38.7506 111.39 38.8878C111.39 39.025 107.359 41.3462 105.343 42.4896Z" fill="url(#paint0_linear_63_954)" shape-rendering="crispEdges"/>
<path d="M105.343 42.4896V49.1787L105.689 49.6932L111.39 52.952H112.081L117.955 49.6932V49.1787V42.4896L112.081 38.8878C111.851 38.8306 111.39 38.7506 111.39 38.8878C111.39 39.025 107.359 41.3462 105.343 42.4896Z" fill="url(#paint1_linear_63_954)" fill-opacity="0.7" shape-rendering="crispEdges"/>
<path d="M105.343 42.4896V49.1787L105.689 49.6932L111.39 52.952H112.081L117.955 49.6932V49.1787V42.4896L112.081 38.8878C111.851 38.8306 111.39 38.7506 111.39 38.8878C111.39 39.025 107.359 41.3462 105.343 42.4896Z" stroke="black" stroke-width="0.0857575" shape-rendering="crispEdges"/>
</g>
<path d="M0.650879 63.5103L1.51468 64.1963H2.37848L12.9168 58.0218L13.4351 57.3357V43.6145L13.9534 43.1L19.1362 40.1842H20.5183L25.5283 43.1L25.8738 43.6145V57.3357L26.3921 58.0218L37.1032 64.1963H37.967L38.3125 63.5103L38.658 36.4109L21.0365 25.777H18.6179L0.650879 36.4109V63.5103Z" fill="black" stroke="#FCFDFD" stroke-width="0.583151"/>
<path d="M66.8178 66.3531H66.8445L66.8675 66.3396L84.1435 56.2202L84.1543 56.2139L84.1631 56.2051L84.6814 55.6905L84.6883 55.6837L84.6938 55.6756L85.0393 55.161L85.056 55.1361V55.1061V35.0389V35.0198L85.0489 35.0021L84.7033 34.1445L84.6907 34.1132L84.6616 34.0962L66.6945 23.6338L66.6716 23.6204H66.645H65.4357H65.4098L65.3872 23.6332L48.1112 33.4096L48.0957 33.4183L48.0843 33.4319L47.2205 34.461L47.1975 34.4885V34.5243V55.6207V55.6682L47.2347 55.6978L48.0985 56.3838L48.104 56.3882L48.1102 56.3918L65.2134 66.3397L65.2364 66.3531H65.2629H66.8178Z" fill="url(#paint2_linear_63_954)"/>
<path d="M66.8178 66.3531H66.8445L66.8675 66.3396L84.1435 56.2202L84.1543 56.2139L84.1631 56.2051L84.6814 55.6905L84.6883 55.6837L84.6938 55.6756L85.0393 55.161L85.056 55.1361V55.1061V35.0389V35.0198L85.0489 35.0021L84.7033 34.1445L84.6907 34.1132L84.6616 34.0962L66.6945 23.6338L66.6716 23.6204H66.645H65.4357H65.4098L65.3872 23.6332L48.1112 33.4096L48.0957 33.4183L48.0843 33.4319L47.2205 34.461L47.1975 34.4885V34.5243V55.6207V55.6682L47.2347 55.6978L48.0985 56.3838L48.104 56.3882L48.1102 56.3918L65.2134 66.3397L65.2364 66.3531H65.2629H66.8178Z" fill="url(#paint3_linear_63_954)" fill-opacity="0.62"/>
<path d="M66.8178 66.3531H66.8445L66.8675 66.3396L84.1435 56.2202L84.1543 56.2139L84.1631 56.2051L84.6814 55.6905L84.6883 55.6837L84.6938 55.6756L85.0393 55.161L85.056 55.1361V55.1061V35.0389V35.0198L85.0489 35.0021L84.7033 34.1445L84.6907 34.1132L84.6616 34.0962L66.6945 23.6338L66.6716 23.6204H66.645H65.4357H65.4098L65.3872 23.6332L48.1112 33.4096L48.0957 33.4183L48.0843 33.4319L47.2205 34.461L47.1975 34.4885V34.5243V55.6207V55.6682L47.2347 55.6978L48.0985 56.3838L48.104 56.3882L48.1102 56.3918L65.2134 66.3397L65.2364 66.3531H65.2629H66.8178Z" fill="url(#paint4_linear_63_954)" fill-opacity="0.33"/>
<path d="M66.8178 66.3531H66.8445L66.8675 66.3396L84.1435 56.2202L84.1543 56.2139L84.1631 56.2051L84.6814 55.6905L84.6883 55.6837L84.6938 55.6756L85.0393 55.161L85.056 55.1361V55.1061V35.0389V35.0198L85.0489 35.0021L84.7033 34.1445L84.6907 34.1132L84.6616 34.0962L66.6945 23.6338L66.6716 23.6204H66.645H65.4357H65.4098L65.3872 23.6332L48.1112 33.4096L48.0957 33.4183L48.0843 33.4319L47.2205 34.461L47.1975 34.4885V34.5243V55.6207V55.6682L47.2347 55.6978L48.0985 56.3838L48.104 56.3882L48.1102 56.3918L65.2134 66.3397L65.2364 66.3531H65.2629H66.8178Z" fill="url(#paint5_linear_63_954)" fill-opacity="0.46"/>
<path d="M66.8178 66.3531H66.8445L66.8675 66.3396L84.1435 56.2202L84.1543 56.2139L84.1631 56.2051L84.6814 55.6905L84.6883 55.6837L84.6938 55.6756L85.0393 55.161L85.056 55.1361V55.1061V35.0389V35.0198L85.0489 35.0021L84.7033 34.1445L84.6907 34.1132L84.6616 34.0962L66.6945 23.6338L66.6716 23.6204H66.645H65.4357H65.4098L65.3872 23.6332L48.1112 33.4096L48.0957 33.4183L48.0843 33.4319L47.2205 34.461L47.1975 34.4885V34.5243V55.6207V55.6682L47.2347 55.6978L48.0985 56.3838L48.104 56.3882L48.1102 56.3918L65.2134 66.3397L65.2364 66.3531H65.2629H66.8178Z" stroke="#FCFDFD" stroke-width="0.196891"/>
<defs>
<filter id="filter0_d_63_954" x="104.443" y="37.5686" width="15.4415" height="16.9699" filterUnits="userSpaceOnUse" color-interpolation-filters="sRGB">
<feFlood flood-opacity="0" result="BackgroundImageFix"/>
<feColorMatrix in="SourceAlpha" type="matrix" values="0 0 0 0 0 0 0 0 0 0 0 0 0 0 0 0 0 0 127 0" result="hardAlpha"/>
<feOffset dx="0.514545" dy="0.171515"/>
<feGaussianBlur stdDeviation="0.68606"/>
<feComposite in2="hardAlpha" operator="out"/>
<feColorMatrix type="matrix" values="0 0 0 0 0.388235 0 0 0 0 0.768627 0 0 0 0 0.180392 0 0 0 1 0"/>
<feBlend mode="normal" in2="BackgroundImageFix" result="effect1_dropShadow_63_954"/>
<feBlend mode="normal" in="SourceGraphic" in2="effect1_dropShadow_63_954" result="shape"/>
</filter>
<linearGradient id="paint0_linear_63_954" x1="115.709" y1="36.7538" x2="101.994" y2="51.4316" gradientUnits="userSpaceOnUse">
<stop offset="0.50016" stop-color="white"/>
<stop offset="1" stop-color="white" stop-opacity="0"/>
</linearGradient>
<linearGradient id="paint1_linear_63_954" x1="122.619" y1="42.0708" x2="113.541" y2="31.0293" gradientUnits="userSpaceOnUse">
<stop offset="0.104395" stop-color="#EFECEC"/>
<stop offset="0.943493" stop-color="#827C7C"/>
</linearGradient>
<linearGradient id="paint2_linear_63_954" x1="66.1267" y1="23.7189" x2="66.1267" y2="66.2546" gradientUnits="userSpaceOnUse">
<stop stop-color="#3E863D"/>
<stop offset="1" stop-color="#5C9653"/>
</linearGradient>
<linearGradient id="paint3_linear_63_954" x1="57.6615" y1="41.5564" x2="66.2822" y2="45.0297" gradientUnits="userSpaceOnUse">
<stop offset="0.119861" stop-color="#5AFF58"/>
</linearGradient>
<linearGradient id="paint4_linear_63_954" x1="56.6249" y1="71.7431" x2="73.8475" y2="62.7223" gradientUnits="userSpaceOnUse">
<stop/>
<stop offset="0.451056" stop-color="#AEE834"/>
<stop offset="1"/>
</linearGradient>
<linearGradient id="paint5_linear_63_954" x1="84.9575" y1="33.3237" x2="69.4753" y2="43.3735" gradientUnits="userSpaceOnUse">
<stop offset="0.239358" stop-color="#A0FB59"/>
<stop offset="1" stop-color="#8FFB22"/>
</linearGradient>
</defs>
</svg>
